G04 MADE WITH FRITZING*
G04 WWW.FRITZING.ORG*
G04 DOUBLE SIDED*
G04 HOLES PLATED*
G04 CONTOUR ON CENTER OF CONTOUR VECTOR*
%ASAXBY*%
%FSLAX23Y23*%
%MOIN*%
%OFA0B0*%
%SFA1.0B1.0*%
%ADD10C,0.080000*%
%ADD11C,0.070000*%
%ADD12C,0.100000*%
%ADD13C,0.078000*%
%ADD14C,0.075000*%
%ADD15C,0.062992*%
%ADD16C,0.082000*%
%ADD17C,0.024000*%
%ADD18C,0.020000*%
%ADD19C,0.017000*%
%ADD20C,0.015748*%
%ADD21R,0.001000X0.001000*%
%LNCOPPER0*%
G90*
G70*
G54D10*
X567Y725D03*
X667Y725D03*
X767Y725D03*
X867Y725D03*
X967Y725D03*
X1067Y725D03*
X1167Y725D03*
X1267Y725D03*
G54D11*
X1675Y1541D03*
X1575Y1541D03*
X1475Y1541D03*
X1375Y1541D03*
X1275Y1541D03*
X1175Y1541D03*
X1075Y1541D03*
X975Y1541D03*
X875Y1541D03*
X775Y1541D03*
X675Y1541D03*
X575Y1541D03*
X475Y1541D03*
X375Y1541D03*
X275Y1541D03*
X1675Y941D03*
X1575Y941D03*
X1475Y941D03*
X1375Y941D03*
X1275Y941D03*
X1175Y941D03*
X1075Y941D03*
X975Y941D03*
X875Y941D03*
X775Y941D03*
X675Y941D03*
X575Y941D03*
X475Y941D03*
X375Y941D03*
X275Y941D03*
X1770Y1341D03*
X1670Y1341D03*
X1770Y1241D03*
X1670Y1241D03*
X1770Y1141D03*
X1670Y1141D03*
G54D12*
X397Y2009D03*
G54D13*
X323Y2147D03*
X423Y2147D03*
G54D12*
X570Y2009D03*
G54D13*
X523Y2147D03*
X623Y2147D03*
G54D12*
X669Y2974D03*
X669Y3170D03*
X275Y3170D03*
X275Y2974D03*
X1575Y2005D03*
G54D13*
X1501Y2143D03*
X1601Y2143D03*
G54D12*
X1749Y2005D03*
G54D13*
X1701Y2143D03*
X1801Y2143D03*
G54D12*
X1847Y2970D03*
X1847Y3166D03*
X1453Y3166D03*
X1453Y2970D03*
X6499Y1461D03*
G54D13*
X6573Y1323D03*
X6473Y1323D03*
G54D12*
X6326Y1461D03*
G54D13*
X6373Y1323D03*
X6273Y1323D03*
G54D12*
X6228Y496D03*
X6228Y300D03*
X6621Y300D03*
X6621Y496D03*
X5547Y1461D03*
G54D13*
X5621Y1323D03*
X5521Y1323D03*
G54D12*
X5374Y1461D03*
G54D13*
X5421Y1323D03*
X5321Y1323D03*
G54D12*
X5275Y496D03*
X5275Y300D03*
X5669Y300D03*
X5669Y496D03*
X4610Y1461D03*
G54D13*
X4684Y1323D03*
X4584Y1323D03*
G54D12*
X4437Y1461D03*
G54D13*
X4484Y1323D03*
X4384Y1323D03*
G54D12*
X4339Y496D03*
X4339Y300D03*
X4732Y300D03*
X4732Y496D03*
X3634Y1461D03*
G54D13*
X3709Y1323D03*
X3609Y1323D03*
G54D12*
X3461Y1461D03*
G54D13*
X3509Y1323D03*
X3409Y1323D03*
G54D12*
X3363Y496D03*
X3363Y300D03*
X3757Y300D03*
X3757Y496D03*
X6347Y2034D03*
G54D13*
X6273Y2172D03*
X6373Y2172D03*
G54D12*
X6520Y2034D03*
G54D13*
X6473Y2172D03*
X6573Y2172D03*
G54D12*
X6619Y2999D03*
X6619Y3195D03*
X6225Y3195D03*
X6225Y2999D03*
X5395Y2017D03*
G54D13*
X5320Y2155D03*
X5420Y2155D03*
G54D12*
X5568Y2017D03*
G54D13*
X5520Y2155D03*
X5620Y2155D03*
G54D12*
X5666Y2983D03*
X5666Y3179D03*
X5273Y3179D03*
X5273Y2983D03*
X4458Y2017D03*
G54D13*
X4384Y2155D03*
X4484Y2155D03*
G54D12*
X4631Y2017D03*
G54D13*
X4584Y2155D03*
X4684Y2155D03*
G54D12*
X4730Y2983D03*
X4730Y3179D03*
X4336Y3179D03*
X4336Y2983D03*
X3482Y2010D03*
G54D13*
X3408Y2148D03*
X3508Y2148D03*
G54D12*
X3656Y2009D03*
G54D13*
X3608Y2148D03*
X3708Y2148D03*
G54D12*
X3754Y2975D03*
X3754Y3171D03*
X3360Y3171D03*
X3360Y2975D03*
X2524Y2005D03*
G54D13*
X2450Y2143D03*
X2550Y2143D03*
G54D12*
X2697Y2004D03*
G54D13*
X2650Y2143D03*
X2750Y2143D03*
G54D12*
X2796Y2970D03*
X2796Y3166D03*
X2402Y3166D03*
X2402Y2970D03*
G54D10*
X2416Y1189D03*
X2271Y1189D03*
X2126Y1189D03*
X268Y184D03*
X268Y329D03*
X268Y474D03*
G54D14*
X1096Y515D03*
X1096Y215D03*
G54D15*
X768Y509D03*
X867Y509D03*
G54D14*
X1492Y489D03*
X1492Y745D03*
X1670Y489D03*
X1670Y745D03*
G54D16*
X5981Y1812D03*
X6781Y1812D03*
G54D10*
X6187Y1605D03*
X6587Y1605D03*
G54D17*
X3322Y496D02*
X2799Y502D01*
D02*
X574Y912D02*
X568Y756D01*
D02*
X668Y756D02*
X674Y912D01*
D02*
X768Y756D02*
X774Y912D01*
D02*
X868Y756D02*
X874Y912D01*
D02*
X968Y756D02*
X974Y912D01*
D02*
X1068Y756D02*
X1074Y912D01*
D02*
X1168Y756D02*
X1174Y912D01*
D02*
X1268Y756D02*
X1274Y912D01*
D02*
X281Y1960D02*
X275Y1570D01*
D02*
X316Y2117D02*
X281Y1960D01*
D02*
X480Y1882D02*
X475Y1570D01*
D02*
X896Y1887D02*
X480Y1882D01*
D02*
X1002Y1924D02*
X896Y1887D01*
D02*
X2043Y1924D02*
X1002Y1924D01*
D02*
X2193Y2133D02*
X2043Y1924D01*
D02*
X2420Y2141D02*
X2193Y2133D01*
D02*
X672Y1769D02*
X674Y1570D01*
D02*
X983Y1780D02*
X672Y1769D01*
D02*
X1046Y1824D02*
X983Y1780D01*
D02*
X2139Y1828D02*
X1046Y1824D01*
D02*
X2213Y1876D02*
X2139Y1828D01*
D02*
X3265Y1883D02*
X2213Y1876D01*
D02*
X3339Y1928D02*
X3265Y1883D01*
D02*
X4049Y1938D02*
X3339Y1928D01*
D02*
X4181Y2133D02*
X4049Y1938D01*
D02*
X4354Y2152D02*
X4181Y2133D01*
D02*
X1046Y1672D02*
X880Y1672D01*
D02*
X880Y1672D02*
X876Y1570D01*
D02*
X1117Y1720D02*
X1046Y1672D01*
D02*
X2254Y1720D02*
X1117Y1720D01*
D02*
X2394Y1769D02*
X2254Y1720D01*
D02*
X3428Y1772D02*
X2394Y1769D01*
D02*
X3477Y1813D02*
X3428Y1772D01*
D02*
X4516Y1838D02*
X3477Y1813D01*
D02*
X4614Y1870D02*
X4516Y1838D01*
D02*
X5685Y1870D02*
X4614Y1870D01*
D02*
X5791Y1919D02*
X5685Y1870D01*
D02*
X5952Y1915D02*
X5791Y1919D01*
D02*
X6007Y2148D02*
X5952Y1915D01*
D02*
X6243Y2169D02*
X6007Y2148D01*
D02*
X3147Y1235D02*
X3001Y1605D01*
D02*
X3001Y1605D02*
X1280Y1624D01*
D02*
X3616Y1242D02*
X3147Y1235D01*
D02*
X1280Y1624D02*
X1276Y1570D01*
D02*
X3611Y1293D02*
X3616Y1242D01*
D02*
X2263Y1542D02*
X1704Y1541D01*
D02*
X2270Y1224D02*
X2263Y1542D01*
D02*
X2108Y1061D02*
X1587Y1061D01*
D02*
X1587Y1061D02*
X1575Y1512D01*
D02*
X2121Y1155D02*
X2108Y1061D01*
D02*
X3179Y113D02*
X523Y90D01*
D02*
X523Y90D02*
X523Y478D01*
D02*
X523Y478D02*
X302Y474D01*
D02*
X3334Y271D02*
X3179Y113D01*
D02*
X3560Y113D02*
X4181Y113D01*
D02*
X4181Y113D02*
X4312Y268D01*
D02*
X3393Y272D02*
X3560Y113D01*
D02*
X4531Y113D02*
X5113Y113D01*
D02*
X5113Y113D02*
X5248Y269D01*
D02*
X4368Y271D02*
X4531Y113D01*
D02*
X5471Y113D02*
X6038Y113D01*
D02*
X6038Y113D02*
X6198Y271D01*
D02*
X5305Y271D02*
X5471Y113D01*
D02*
X6256Y330D02*
X6985Y1100D01*
D02*
X6985Y1100D02*
X7001Y3018D01*
D02*
X7001Y3018D02*
X6656Y3178D01*
D02*
X6387Y3360D02*
X5944Y3360D01*
D02*
X5944Y3360D02*
X5701Y3201D01*
D02*
X6585Y3219D02*
X6387Y3360D01*
D02*
X5440Y3352D02*
X4919Y3344D01*
D02*
X4919Y3344D02*
X4761Y3206D01*
D02*
X5634Y3204D02*
X5440Y3352D01*
D02*
X4616Y3352D02*
X3941Y3352D01*
D02*
X3941Y3352D02*
X3784Y3199D01*
D02*
X4707Y3213D02*
X4616Y3352D01*
D02*
X3576Y3360D02*
X3001Y3352D01*
D02*
X3001Y3352D02*
X2826Y3193D01*
D02*
X3726Y3201D02*
X3576Y3360D01*
D02*
X2690Y3375D02*
X2063Y3366D01*
D02*
X2063Y3366D02*
X1877Y3194D01*
D02*
X2777Y3203D02*
X2690Y3375D01*
D02*
X1663Y3358D02*
X861Y3358D01*
D02*
X861Y3358D02*
X698Y3199D01*
D02*
X1819Y3196D02*
X1663Y3358D01*
D02*
X2799Y269D02*
X1595Y261D01*
D02*
X2799Y502D02*
X2799Y269D01*
D02*
X1595Y253D02*
X1124Y217D01*
D02*
X1595Y253D02*
X1576Y912D01*
D02*
X2799Y502D02*
X2776Y1107D01*
D02*
X2776Y1107D02*
X2620Y1193D01*
D02*
X2620Y1193D02*
X2450Y1190D01*
D02*
X1477Y912D02*
X1490Y773D01*
D02*
X1665Y377D02*
X1668Y460D01*
D02*
X1595Y261D02*
X1665Y377D01*
D02*
X1595Y253D02*
X1595Y261D01*
D02*
X6759Y1789D02*
X6608Y1627D01*
D02*
X6004Y1789D02*
X6165Y1627D01*
G54D18*
X537Y755D02*
X597Y755D01*
X597Y695D01*
X537Y695D01*
X537Y755D01*
D02*
G54D19*
X1701Y1515D02*
X1648Y1515D01*
X1648Y1568D01*
X1701Y1568D01*
X1701Y1515D01*
D02*
G54D20*
X792Y485D02*
X744Y485D01*
X744Y532D01*
X792Y532D01*
X792Y485D01*
D02*
G54D21*
X2376Y1230D02*
X2454Y1230D01*
X2375Y1229D02*
X2454Y1229D01*
X2375Y1228D02*
X2454Y1228D01*
X2375Y1227D02*
X2454Y1227D01*
X2375Y1226D02*
X2454Y1226D01*
X2375Y1225D02*
X2454Y1225D01*
X2375Y1224D02*
X2454Y1224D01*
X2375Y1223D02*
X2454Y1223D01*
X2375Y1222D02*
X2454Y1222D01*
X2375Y1221D02*
X2454Y1221D01*
X2375Y1220D02*
X2454Y1220D01*
X2375Y1219D02*
X2454Y1219D01*
X2375Y1218D02*
X2454Y1218D01*
X2375Y1217D02*
X2454Y1217D01*
X2375Y1216D02*
X2454Y1216D01*
X2375Y1215D02*
X2454Y1215D01*
X2375Y1214D02*
X2454Y1214D01*
X2375Y1213D02*
X2408Y1213D01*
X2422Y1213D02*
X2454Y1213D01*
X2375Y1212D02*
X2405Y1212D01*
X2425Y1212D02*
X2454Y1212D01*
X2375Y1211D02*
X2403Y1211D01*
X2427Y1211D02*
X2454Y1211D01*
X2375Y1210D02*
X2401Y1210D01*
X2428Y1210D02*
X2454Y1210D01*
X2375Y1209D02*
X2400Y1209D01*
X2430Y1209D02*
X2454Y1209D01*
X2375Y1208D02*
X2399Y1208D01*
X2431Y1208D02*
X2454Y1208D01*
X2375Y1207D02*
X2398Y1207D01*
X2432Y1207D02*
X2454Y1207D01*
X2375Y1206D02*
X2397Y1206D01*
X2433Y1206D02*
X2454Y1206D01*
X2375Y1205D02*
X2396Y1205D01*
X2434Y1205D02*
X2454Y1205D01*
X2375Y1204D02*
X2395Y1204D01*
X2435Y1204D02*
X2454Y1204D01*
X2375Y1203D02*
X2395Y1203D01*
X2435Y1203D02*
X2454Y1203D01*
X2375Y1202D02*
X2394Y1202D01*
X2436Y1202D02*
X2454Y1202D01*
X2375Y1201D02*
X2393Y1201D01*
X2436Y1201D02*
X2454Y1201D01*
X2375Y1200D02*
X2393Y1200D01*
X2437Y1200D02*
X2454Y1200D01*
X2375Y1199D02*
X2392Y1199D01*
X2437Y1199D02*
X2454Y1199D01*
X2375Y1198D02*
X2392Y1198D01*
X2438Y1198D02*
X2454Y1198D01*
X2375Y1197D02*
X2392Y1197D01*
X2438Y1197D02*
X2454Y1197D01*
X2375Y1196D02*
X2391Y1196D01*
X2438Y1196D02*
X2454Y1196D01*
X2375Y1195D02*
X2391Y1195D01*
X2438Y1195D02*
X2454Y1195D01*
X2375Y1194D02*
X2391Y1194D01*
X2439Y1194D02*
X2454Y1194D01*
X2375Y1193D02*
X2391Y1193D01*
X2439Y1193D02*
X2454Y1193D01*
X2375Y1192D02*
X2391Y1192D01*
X2439Y1192D02*
X2454Y1192D01*
X2375Y1191D02*
X2391Y1191D01*
X2439Y1191D02*
X2454Y1191D01*
X2375Y1190D02*
X2391Y1190D01*
X2439Y1190D02*
X2454Y1190D01*
X2375Y1189D02*
X2391Y1189D01*
X2439Y1189D02*
X2454Y1189D01*
X2375Y1188D02*
X2391Y1188D01*
X2439Y1188D02*
X2454Y1188D01*
X2375Y1187D02*
X2391Y1187D01*
X2439Y1187D02*
X2454Y1187D01*
X2375Y1186D02*
X2391Y1186D01*
X2439Y1186D02*
X2454Y1186D01*
X2375Y1185D02*
X2391Y1185D01*
X2438Y1185D02*
X2454Y1185D01*
X2375Y1184D02*
X2392Y1184D01*
X2438Y1184D02*
X2454Y1184D01*
X2375Y1183D02*
X2392Y1183D01*
X2438Y1183D02*
X2454Y1183D01*
X2375Y1182D02*
X2392Y1182D01*
X2437Y1182D02*
X2454Y1182D01*
X2375Y1181D02*
X2393Y1181D01*
X2437Y1181D02*
X2454Y1181D01*
X2375Y1180D02*
X2393Y1180D01*
X2437Y1180D02*
X2454Y1180D01*
X2375Y1179D02*
X2394Y1179D01*
X2436Y1179D02*
X2454Y1179D01*
X2375Y1178D02*
X2394Y1178D01*
X2436Y1178D02*
X2454Y1178D01*
X2375Y1177D02*
X2395Y1177D01*
X2435Y1177D02*
X2454Y1177D01*
X2375Y1176D02*
X2396Y1176D01*
X2434Y1176D02*
X2454Y1176D01*
X2375Y1175D02*
X2396Y1175D01*
X2433Y1175D02*
X2454Y1175D01*
X2375Y1174D02*
X2397Y1174D01*
X2433Y1174D02*
X2454Y1174D01*
X2375Y1173D02*
X2398Y1173D01*
X2431Y1173D02*
X2454Y1173D01*
X2375Y1172D02*
X2399Y1172D01*
X2430Y1172D02*
X2454Y1172D01*
X2375Y1171D02*
X2401Y1171D01*
X2429Y1171D02*
X2454Y1171D01*
X2375Y1170D02*
X2402Y1170D01*
X2428Y1170D02*
X2454Y1170D01*
X2375Y1169D02*
X2404Y1169D01*
X2426Y1169D02*
X2454Y1169D01*
X2375Y1168D02*
X2406Y1168D01*
X2423Y1168D02*
X2454Y1168D01*
X2375Y1167D02*
X2410Y1167D01*
X2420Y1167D02*
X2454Y1167D01*
X2375Y1166D02*
X2454Y1166D01*
X2375Y1165D02*
X2454Y1165D01*
X2375Y1164D02*
X2454Y1164D01*
X2375Y1163D02*
X2454Y1163D01*
X2375Y1162D02*
X2454Y1162D01*
X2375Y1161D02*
X2454Y1161D01*
X2375Y1160D02*
X2454Y1160D01*
X2375Y1159D02*
X2454Y1159D01*
X2375Y1158D02*
X2454Y1158D01*
X2375Y1157D02*
X2454Y1157D01*
X2375Y1156D02*
X2454Y1156D01*
X2375Y1155D02*
X2454Y1155D01*
X2375Y1154D02*
X2454Y1154D01*
X2375Y1153D02*
X2454Y1153D01*
X2375Y1152D02*
X2454Y1152D01*
X2375Y1151D02*
X2454Y1151D01*
X228Y225D02*
X307Y225D01*
X228Y224D02*
X307Y224D01*
X228Y223D02*
X307Y223D01*
X228Y222D02*
X307Y222D01*
X228Y221D02*
X307Y221D01*
X228Y220D02*
X307Y220D01*
X228Y219D02*
X307Y219D01*
X228Y218D02*
X307Y218D01*
X228Y217D02*
X307Y217D01*
X228Y216D02*
X307Y216D01*
X228Y215D02*
X307Y215D01*
X228Y214D02*
X307Y214D01*
X228Y213D02*
X307Y213D01*
X228Y212D02*
X307Y212D01*
X228Y211D02*
X307Y211D01*
X228Y210D02*
X307Y210D01*
X228Y209D02*
X307Y209D01*
X228Y208D02*
X260Y208D01*
X275Y208D02*
X307Y208D01*
X228Y207D02*
X257Y207D01*
X277Y207D02*
X307Y207D01*
X228Y206D02*
X255Y206D01*
X279Y206D02*
X307Y206D01*
X228Y205D02*
X254Y205D01*
X281Y205D02*
X307Y205D01*
X228Y204D02*
X252Y204D01*
X282Y204D02*
X307Y204D01*
X228Y203D02*
X251Y203D01*
X283Y203D02*
X307Y203D01*
X228Y202D02*
X250Y202D01*
X285Y202D02*
X307Y202D01*
X228Y201D02*
X249Y201D01*
X285Y201D02*
X307Y201D01*
X228Y200D02*
X248Y200D01*
X286Y200D02*
X307Y200D01*
X228Y199D02*
X247Y199D01*
X287Y199D02*
X307Y199D01*
X228Y198D02*
X247Y198D01*
X288Y198D02*
X307Y198D01*
X228Y197D02*
X246Y197D01*
X288Y197D02*
X307Y197D01*
X228Y196D02*
X246Y196D01*
X289Y196D02*
X307Y196D01*
X228Y195D02*
X245Y195D01*
X289Y195D02*
X307Y195D01*
X228Y194D02*
X245Y194D01*
X290Y194D02*
X307Y194D01*
X228Y193D02*
X244Y193D01*
X290Y193D02*
X307Y193D01*
X228Y192D02*
X244Y192D01*
X290Y192D02*
X307Y192D01*
X228Y191D02*
X244Y191D01*
X291Y191D02*
X307Y191D01*
X228Y190D02*
X244Y190D01*
X291Y190D02*
X307Y190D01*
X228Y189D02*
X243Y189D01*
X291Y189D02*
X307Y189D01*
X228Y188D02*
X243Y188D01*
X291Y188D02*
X307Y188D01*
X228Y187D02*
X243Y187D01*
X291Y187D02*
X307Y187D01*
X228Y186D02*
X243Y186D01*
X291Y186D02*
X307Y186D01*
X228Y185D02*
X243Y185D01*
X291Y185D02*
X307Y185D01*
X228Y184D02*
X243Y184D01*
X291Y184D02*
X307Y184D01*
X228Y183D02*
X243Y183D01*
X291Y183D02*
X307Y183D01*
X228Y182D02*
X243Y182D01*
X291Y182D02*
X307Y182D01*
X228Y181D02*
X244Y181D01*
X291Y181D02*
X307Y181D01*
X228Y180D02*
X244Y180D01*
X291Y180D02*
X307Y180D01*
X228Y179D02*
X244Y179D01*
X290Y179D02*
X307Y179D01*
X228Y178D02*
X244Y178D01*
X290Y178D02*
X307Y178D01*
X228Y177D02*
X245Y177D01*
X290Y177D02*
X307Y177D01*
X228Y176D02*
X245Y176D01*
X289Y176D02*
X307Y176D01*
X228Y175D02*
X246Y175D01*
X289Y175D02*
X307Y175D01*
X228Y174D02*
X246Y174D01*
X288Y174D02*
X307Y174D01*
X228Y173D02*
X247Y173D01*
X288Y173D02*
X307Y173D01*
X228Y172D02*
X247Y172D01*
X287Y172D02*
X307Y172D01*
X228Y171D02*
X248Y171D01*
X286Y171D02*
X307Y171D01*
X228Y170D02*
X249Y170D01*
X286Y170D02*
X307Y170D01*
X228Y169D02*
X250Y169D01*
X285Y169D02*
X307Y169D01*
X228Y168D02*
X251Y168D01*
X284Y168D02*
X307Y168D01*
X228Y167D02*
X252Y167D01*
X283Y167D02*
X307Y167D01*
X228Y166D02*
X253Y166D01*
X281Y166D02*
X307Y166D01*
X228Y165D02*
X255Y165D01*
X280Y165D02*
X307Y165D01*
X228Y164D02*
X257Y164D01*
X278Y164D02*
X307Y164D01*
X228Y163D02*
X259Y163D01*
X275Y163D02*
X307Y163D01*
X228Y162D02*
X264Y162D01*
X271Y162D02*
X307Y162D01*
X228Y161D02*
X307Y161D01*
X228Y160D02*
X307Y160D01*
X228Y159D02*
X307Y159D01*
X228Y158D02*
X307Y158D01*
X228Y157D02*
X307Y157D01*
X228Y156D02*
X307Y156D01*
X228Y155D02*
X307Y155D01*
X228Y154D02*
X307Y154D01*
X228Y153D02*
X307Y153D01*
X228Y152D02*
X307Y152D01*
X228Y151D02*
X307Y151D01*
X228Y150D02*
X307Y150D01*
X228Y149D02*
X307Y149D01*
X228Y148D02*
X307Y148D01*
X228Y147D02*
X307Y147D01*
X228Y146D02*
X307Y146D01*
D02*
G04 End of Copper0*
M02*