; NON-PLATED HOLES START AT T1
; THROUGH (PLATED) HOLES START AT T100
M48
INCH
T1C0.137795
T100C0.047244
T101C0.038000
T102C0.042000
T103C0.035000
T104C0.060000
T105C0.031497
T106C0.040000
T107C0.036000
%
T1
X010669Y025908
X059444Y008200
X059444Y025908
X022474Y008200
T100
X002677Y001839
X022707Y011889
X002677Y004735
X024155Y011889
X021259Y011889
X002677Y003287
T101
X063728Y021721
X027498Y021425
X017011Y021432
X056203Y021553
X034087Y013230
X065728Y021721
X065734Y013230
X025498Y021425
X006228Y021467
X037087Y013230
X054209Y013230
X046838Y021553
X003228Y021467
X045838Y021553
X036087Y013230
X044838Y021553
X064728Y021721
X053209Y013230
X062734Y013230
X036081Y021475
X053203Y021553
X063734Y013230
X024497Y021425
X035081Y021475
X046844Y013230
X026498Y021425
X018011Y021432
X005228Y021467
X043838Y021553
X044844Y013230
X055209Y013230
X043844Y013230
X054203Y021553
X064734Y013230
X037081Y021475
X034081Y021475
X004228Y021467
X045844Y013230
X056209Y013230
X035087Y013230
X055203Y021553
X016011Y021432
X015011Y021432
X062728Y021721
T102
X059809Y018122
X067809Y018122
T103
X016696Y004888
X014924Y004888
X010957Y005152
X010957Y002152
X016696Y007447
X014924Y007447
T104
X027957Y029697
X027957Y031658
X033603Y029747
X056687Y004958
X024019Y029697
X006687Y029739
X018470Y029703
X062250Y029992
X062275Y002998
X014533Y029703
X026972Y020043
X047322Y004958
X056687Y002998
X043360Y029825
X046313Y020171
X033628Y002998
X034823Y020096
X056662Y031785
X036555Y020093
X066212Y004958
X047322Y002998
X002750Y031699
X063259Y014612
X006687Y031699
X044580Y020174
X052750Y002998
X055678Y020171
X052750Y004958
X066187Y031953
X046102Y014609
X066187Y029992
X053946Y020174
X037565Y004958
X047297Y029825
X062250Y031952
X052725Y029825
X037565Y002998
X062275Y004958
X005703Y020085
X047297Y031785
X002750Y029739
X065202Y020338
X037540Y031708
X053735Y014612
X025240Y020046
X034612Y014612
X043360Y031785
X036344Y014609
X056662Y029825
X043385Y002998
X043385Y004958
X066212Y002998
X033603Y031707
X063470Y020342
X064991Y014609
X014533Y031663
X018470Y031664
X003970Y020088
X015753Y020053
X024019Y031657
X037540Y029747
X017486Y020049
X052725Y031785
X033628Y004958
X055467Y014609
X044369Y014612
T105
X007680Y005086
X008665Y005086
T106
X010665Y007253
X006665Y007253
X011665Y007253
X005665Y007253
X007665Y007253
X065871Y016045
X009665Y007253
X008665Y007253
X061871Y016045
X012665Y007253
T107
X002747Y009411
X015747Y015411
X017703Y012408
X015747Y009411
X014747Y015411
X016747Y015411
X010747Y009411
X009747Y009411
X013747Y009411
X005747Y015411
X012747Y015411
X006747Y009411
X016747Y009411
X003747Y009411
X002747Y015411
X016703Y013409
X011747Y009411
X010747Y015411
X004747Y009411
X003747Y015411
X004747Y015411
X017703Y013409
X014747Y009411
X017703Y011407
X016703Y011407
X016703Y012408
X008747Y015411
X007747Y009411
X008747Y009411
X009747Y015411
X011747Y015411
X005747Y009411
X012747Y009411
X013747Y015411
X006747Y015411
X007747Y015411
T00
M30
