G04 MADE WITH FRITZING*
G04 WWW.FRITZING.ORG*
G04 DOUBLE SIDED*
G04 HOLES PLATED*
G04 CONTOUR ON CENTER OF CONTOUR VECTOR*
%ASAXBY*%
%FSLAX23Y23*%
%MOIN*%
%OFA0B0*%
%SFA1.0B1.0*%
%ADD10C,0.080000*%
%ADD11C,0.110000*%
%ADD12C,0.088000*%
%ADD13C,0.090000*%
%ADD14C,0.049370*%
%ADD15C,0.085000*%
%ADD16C,0.072992*%
%ADD17C,0.147795*%
%ADD18C,0.092000*%
%ADD19C,0.027000*%
%ADD20C,0.025748*%
%ADD21R,0.001000X0.001000*%
%LNMASK0*%
G90*
G70*
G54D10*
X1690Y1541D03*
X1590Y1541D03*
X1490Y1541D03*
X1390Y1541D03*
X1290Y1541D03*
X1190Y1541D03*
X1090Y1541D03*
X990Y1541D03*
X890Y1541D03*
X790Y1541D03*
X690Y1541D03*
X590Y1541D03*
X490Y1541D03*
X390Y1541D03*
X290Y1541D03*
X1690Y941D03*
X1590Y941D03*
X1490Y941D03*
X1390Y941D03*
X1290Y941D03*
X1190Y941D03*
X1090Y941D03*
X990Y941D03*
X890Y941D03*
X790Y941D03*
X690Y941D03*
X590Y941D03*
X490Y941D03*
X390Y941D03*
X290Y941D03*
X1786Y1341D03*
X1686Y1341D03*
X1786Y1241D03*
X1686Y1241D03*
X1786Y1141D03*
X1686Y1141D03*
G54D11*
X413Y2009D03*
G54D12*
X338Y2147D03*
X438Y2147D03*
G54D11*
X586Y2009D03*
G54D12*
X538Y2147D03*
X638Y2147D03*
G54D11*
X684Y2974D03*
X684Y3170D03*
X291Y3170D03*
X291Y2974D03*
X1591Y2005D03*
G54D12*
X1517Y2143D03*
X1617Y2143D03*
G54D11*
X1764Y2005D03*
G54D12*
X1717Y2143D03*
X1817Y2143D03*
G54D11*
X1863Y2970D03*
X1863Y3166D03*
X1469Y3166D03*
X1469Y2970D03*
X4100Y1461D03*
G54D12*
X4175Y1323D03*
X4075Y1323D03*
G54D11*
X3927Y1461D03*
G54D12*
X3975Y1323D03*
X3875Y1323D03*
G54D11*
X3829Y496D03*
X3829Y300D03*
X4223Y300D03*
X4223Y496D03*
X5286Y1461D03*
G54D12*
X5360Y1323D03*
X5260Y1323D03*
G54D11*
X5113Y1461D03*
G54D12*
X5160Y1323D03*
X5060Y1323D03*
G54D11*
X5014Y496D03*
X5014Y300D03*
X5408Y300D03*
X5408Y496D03*
X7497Y2034D03*
G54D12*
X7422Y2172D03*
X7522Y2172D03*
G54D11*
X7670Y2034D03*
G54D12*
X7622Y2172D03*
X7722Y2172D03*
G54D11*
X7768Y2999D03*
X7768Y3195D03*
X7374Y3195D03*
X7374Y2999D03*
X5134Y2010D03*
G54D12*
X5060Y2148D03*
X5160Y2148D03*
G54D11*
X5307Y2009D03*
G54D12*
X5260Y2148D03*
X5360Y2148D03*
G54D11*
X5405Y2975D03*
X5405Y3171D03*
X5012Y3171D03*
X5012Y2975D03*
X6311Y2010D03*
G54D12*
X6237Y2148D03*
X6337Y2148D03*
G54D11*
X6484Y2009D03*
G54D12*
X6437Y2148D03*
X6537Y2148D03*
G54D11*
X6583Y2975D03*
X6583Y3171D03*
X6189Y3171D03*
X6189Y2975D03*
X2773Y2005D03*
G54D12*
X2698Y2143D03*
X2798Y2143D03*
G54D11*
X2946Y2004D03*
G54D12*
X2898Y2143D03*
X2998Y2143D03*
G54D11*
X3044Y2970D03*
X3044Y3166D03*
X2651Y3166D03*
X2651Y2970D03*
X6463Y1461D03*
G54D12*
X6537Y1323D03*
X6437Y1323D03*
G54D11*
X6290Y1461D03*
G54D12*
X6337Y1323D03*
X6237Y1323D03*
G54D11*
X6192Y496D03*
X6192Y300D03*
X6585Y300D03*
X6585Y496D03*
X3948Y2010D03*
G54D12*
X3874Y2148D03*
X3974Y2148D03*
G54D11*
X4122Y2009D03*
G54D12*
X4074Y2148D03*
X4174Y2148D03*
G54D11*
X4220Y2975D03*
X4220Y3171D03*
X3826Y3171D03*
X3826Y2975D03*
X7649Y1461D03*
G54D12*
X7723Y1323D03*
X7623Y1323D03*
G54D11*
X7475Y1461D03*
G54D12*
X7523Y1323D03*
X7423Y1323D03*
G54D11*
X7377Y496D03*
X7377Y300D03*
X7771Y300D03*
X7771Y496D03*
G54D13*
X283Y231D03*
X283Y375D03*
X283Y520D03*
X2431Y1189D03*
X2286Y1189D03*
X2142Y1189D03*
G54D14*
X3591Y497D03*
G54D15*
X1106Y647D03*
X1106Y247D03*
G54D16*
X784Y648D03*
X882Y648D03*
G54D15*
X1508Y489D03*
X1508Y745D03*
X1685Y489D03*
X1685Y745D03*
G54D17*
X1082Y2591D03*
X6985Y2591D03*
X6977Y820D03*
X2263Y820D03*
G54D18*
X5996Y1812D03*
X6796Y1812D03*
G54D13*
X6203Y1605D03*
X6603Y1605D03*
G54D19*
G36*
X1717Y1515D02*
X1664Y1515D01*
X1664Y1568D01*
X1717Y1568D01*
X1717Y1515D01*
G37*
D02*
G54D20*
G36*
X807Y625D02*
X760Y625D01*
X760Y672D01*
X807Y672D01*
X807Y625D01*
G37*
D02*
G54D21*
X2386Y1235D02*
X2475Y1235D01*
X2386Y1234D02*
X2475Y1234D01*
X2386Y1233D02*
X2475Y1233D01*
X2386Y1232D02*
X2475Y1232D01*
X2386Y1231D02*
X2475Y1231D01*
X2386Y1230D02*
X2475Y1230D01*
X2386Y1229D02*
X2475Y1229D01*
X2386Y1228D02*
X2475Y1228D01*
X2386Y1227D02*
X2475Y1227D01*
X2386Y1226D02*
X2475Y1226D01*
X2386Y1225D02*
X2475Y1225D01*
X2386Y1224D02*
X2475Y1224D01*
X2386Y1223D02*
X2475Y1223D01*
X2386Y1222D02*
X2475Y1222D01*
X2386Y1221D02*
X2475Y1221D01*
X2386Y1220D02*
X2475Y1220D01*
X2386Y1219D02*
X2475Y1219D01*
X2386Y1218D02*
X2475Y1218D01*
X2386Y1217D02*
X2475Y1217D01*
X2386Y1216D02*
X2475Y1216D01*
X2386Y1215D02*
X2475Y1215D01*
X2386Y1214D02*
X2475Y1214D01*
X2386Y1213D02*
X2475Y1213D01*
X2386Y1212D02*
X2475Y1212D01*
X2386Y1211D02*
X2475Y1211D01*
X2386Y1210D02*
X2475Y1210D01*
X2386Y1209D02*
X2429Y1209D01*
X2432Y1209D02*
X2475Y1209D01*
X2386Y1208D02*
X2424Y1208D01*
X2437Y1208D02*
X2475Y1208D01*
X2386Y1207D02*
X2422Y1207D01*
X2439Y1207D02*
X2475Y1207D01*
X2386Y1206D02*
X2420Y1206D01*
X2441Y1206D02*
X2475Y1206D01*
X2386Y1205D02*
X2419Y1205D01*
X2442Y1205D02*
X2475Y1205D01*
X2386Y1204D02*
X2417Y1204D01*
X2444Y1204D02*
X2475Y1204D01*
X2386Y1203D02*
X2416Y1203D01*
X2445Y1203D02*
X2475Y1203D01*
X2386Y1202D02*
X2415Y1202D01*
X2446Y1202D02*
X2475Y1202D01*
X2386Y1201D02*
X2415Y1201D01*
X2446Y1201D02*
X2475Y1201D01*
X2386Y1200D02*
X2414Y1200D01*
X2447Y1200D02*
X2475Y1200D01*
X2386Y1199D02*
X2413Y1199D01*
X2448Y1199D02*
X2475Y1199D01*
X2386Y1198D02*
X2413Y1198D01*
X2448Y1198D02*
X2475Y1198D01*
X2386Y1197D02*
X2413Y1197D01*
X2448Y1197D02*
X2475Y1197D01*
X2386Y1196D02*
X2412Y1196D01*
X2449Y1196D02*
X2475Y1196D01*
X2386Y1195D02*
X2412Y1195D01*
X2449Y1195D02*
X2475Y1195D01*
X2386Y1194D02*
X2412Y1194D01*
X2449Y1194D02*
X2475Y1194D01*
X2386Y1193D02*
X2412Y1193D01*
X2449Y1193D02*
X2475Y1193D01*
X2386Y1192D02*
X2411Y1192D01*
X2450Y1192D02*
X2475Y1192D01*
X2386Y1191D02*
X2411Y1191D01*
X2450Y1191D02*
X2475Y1191D01*
X2386Y1190D02*
X2411Y1190D01*
X2450Y1190D02*
X2475Y1190D01*
X2386Y1189D02*
X2411Y1189D01*
X2450Y1189D02*
X2475Y1189D01*
X2386Y1188D02*
X2412Y1188D01*
X2449Y1188D02*
X2475Y1188D01*
X2386Y1187D02*
X2412Y1187D01*
X2449Y1187D02*
X2475Y1187D01*
X2386Y1186D02*
X2412Y1186D01*
X2449Y1186D02*
X2475Y1186D01*
X2386Y1185D02*
X2412Y1185D01*
X2449Y1185D02*
X2475Y1185D01*
X2386Y1184D02*
X2412Y1184D01*
X2449Y1184D02*
X2475Y1184D01*
X2386Y1183D02*
X2413Y1183D01*
X2448Y1183D02*
X2475Y1183D01*
X2386Y1182D02*
X2413Y1182D01*
X2448Y1182D02*
X2475Y1182D01*
X2386Y1181D02*
X2414Y1181D01*
X2447Y1181D02*
X2475Y1181D01*
X2386Y1180D02*
X2414Y1180D01*
X2447Y1180D02*
X2475Y1180D01*
X2386Y1179D02*
X2415Y1179D01*
X2446Y1179D02*
X2475Y1179D01*
X2386Y1178D02*
X2416Y1178D01*
X2445Y1178D02*
X2475Y1178D01*
X2386Y1177D02*
X2417Y1177D01*
X2444Y1177D02*
X2475Y1177D01*
X2386Y1176D02*
X2418Y1176D01*
X2443Y1176D02*
X2475Y1176D01*
X2386Y1175D02*
X2419Y1175D01*
X2442Y1175D02*
X2475Y1175D01*
X2386Y1174D02*
X2421Y1174D01*
X2440Y1174D02*
X2475Y1174D01*
X2386Y1173D02*
X2423Y1173D01*
X2438Y1173D02*
X2475Y1173D01*
X2386Y1172D02*
X2426Y1172D01*
X2435Y1172D02*
X2475Y1172D01*
X2386Y1171D02*
X2475Y1171D01*
X2386Y1170D02*
X2475Y1170D01*
X2386Y1169D02*
X2475Y1169D01*
X2386Y1168D02*
X2475Y1168D01*
X2386Y1167D02*
X2475Y1167D01*
X2386Y1166D02*
X2475Y1166D01*
X2386Y1165D02*
X2475Y1165D01*
X2386Y1164D02*
X2475Y1164D01*
X2386Y1163D02*
X2475Y1163D01*
X2386Y1162D02*
X2475Y1162D01*
X2386Y1161D02*
X2475Y1161D01*
X2386Y1160D02*
X2475Y1160D01*
X2386Y1159D02*
X2475Y1159D01*
X2386Y1158D02*
X2475Y1158D01*
X2386Y1157D02*
X2475Y1157D01*
X2386Y1156D02*
X2475Y1156D01*
X2386Y1155D02*
X2475Y1155D01*
X2386Y1154D02*
X2475Y1154D01*
X2386Y1153D02*
X2475Y1153D01*
X2386Y1152D02*
X2475Y1152D01*
X2386Y1151D02*
X2475Y1151D01*
X2386Y1150D02*
X2475Y1150D01*
X2386Y1149D02*
X2475Y1149D01*
X2386Y1148D02*
X2475Y1148D01*
X2386Y1147D02*
X2475Y1147D01*
X2386Y1146D02*
X2475Y1146D01*
X239Y277D02*
X327Y277D01*
X238Y276D02*
X327Y276D01*
X238Y275D02*
X327Y275D01*
X238Y274D02*
X327Y274D01*
X238Y273D02*
X327Y273D01*
X238Y272D02*
X327Y272D01*
X238Y271D02*
X327Y271D01*
X238Y270D02*
X327Y270D01*
X238Y269D02*
X327Y269D01*
X238Y268D02*
X327Y268D01*
X238Y267D02*
X327Y267D01*
X238Y266D02*
X327Y266D01*
X238Y265D02*
X327Y265D01*
X238Y264D02*
X327Y264D01*
X238Y263D02*
X327Y263D01*
X238Y262D02*
X327Y262D01*
X238Y261D02*
X327Y261D01*
X238Y260D02*
X327Y260D01*
X238Y259D02*
X327Y259D01*
X238Y258D02*
X327Y258D01*
X238Y257D02*
X327Y257D01*
X238Y256D02*
X327Y256D01*
X238Y255D02*
X327Y255D01*
X238Y254D02*
X327Y254D01*
X238Y253D02*
X327Y253D01*
X238Y252D02*
X327Y252D01*
X238Y251D02*
X327Y251D01*
X238Y250D02*
X277Y250D01*
X288Y250D02*
X327Y250D01*
X238Y249D02*
X274Y249D01*
X291Y249D02*
X327Y249D01*
X238Y248D02*
X272Y248D01*
X293Y248D02*
X327Y248D01*
X238Y247D02*
X271Y247D01*
X295Y247D02*
X327Y247D01*
X238Y246D02*
X270Y246D01*
X296Y246D02*
X327Y246D01*
X238Y245D02*
X269Y245D01*
X297Y245D02*
X327Y245D01*
X238Y244D02*
X268Y244D01*
X298Y244D02*
X327Y244D01*
X238Y243D02*
X267Y243D01*
X298Y243D02*
X327Y243D01*
X238Y242D02*
X267Y242D01*
X299Y242D02*
X327Y242D01*
X238Y241D02*
X266Y241D01*
X300Y241D02*
X327Y241D01*
X238Y240D02*
X265Y240D01*
X300Y240D02*
X327Y240D01*
X238Y239D02*
X265Y239D01*
X301Y239D02*
X327Y239D01*
X238Y238D02*
X265Y238D01*
X301Y238D02*
X327Y238D01*
X238Y237D02*
X264Y237D01*
X301Y237D02*
X327Y237D01*
X238Y236D02*
X264Y236D01*
X302Y236D02*
X327Y236D01*
X238Y235D02*
X264Y235D01*
X302Y235D02*
X327Y235D01*
X238Y234D02*
X264Y234D01*
X302Y234D02*
X327Y234D01*
X238Y233D02*
X264Y233D01*
X302Y233D02*
X327Y233D01*
X238Y232D02*
X263Y232D01*
X302Y232D02*
X327Y232D01*
X238Y231D02*
X264Y231D01*
X302Y231D02*
X327Y231D01*
X238Y230D02*
X264Y230D01*
X302Y230D02*
X327Y230D01*
X238Y229D02*
X264Y229D01*
X302Y229D02*
X327Y229D01*
X238Y228D02*
X264Y228D01*
X302Y228D02*
X327Y228D01*
X238Y227D02*
X264Y227D01*
X301Y227D02*
X327Y227D01*
X238Y226D02*
X265Y226D01*
X301Y226D02*
X327Y226D01*
X238Y225D02*
X265Y225D01*
X301Y225D02*
X327Y225D01*
X238Y224D02*
X265Y224D01*
X300Y224D02*
X327Y224D01*
X238Y223D02*
X266Y223D01*
X300Y223D02*
X327Y223D01*
X238Y222D02*
X267Y222D01*
X299Y222D02*
X327Y222D01*
X238Y221D02*
X267Y221D01*
X298Y221D02*
X327Y221D01*
X238Y220D02*
X268Y220D01*
X298Y220D02*
X327Y220D01*
X238Y219D02*
X269Y219D01*
X297Y219D02*
X327Y219D01*
X238Y218D02*
X270Y218D01*
X296Y218D02*
X327Y218D01*
X238Y217D02*
X271Y217D01*
X295Y217D02*
X327Y217D01*
X238Y216D02*
X272Y216D01*
X293Y216D02*
X327Y216D01*
X238Y215D02*
X274Y215D01*
X291Y215D02*
X327Y215D01*
X238Y214D02*
X277Y214D01*
X288Y214D02*
X327Y214D01*
X238Y213D02*
X327Y213D01*
X238Y212D02*
X327Y212D01*
X238Y211D02*
X327Y211D01*
X238Y210D02*
X327Y210D01*
X238Y209D02*
X327Y209D01*
X238Y208D02*
X327Y208D01*
X238Y207D02*
X327Y207D01*
X238Y206D02*
X327Y206D01*
X238Y205D02*
X327Y205D01*
X238Y204D02*
X327Y204D01*
X238Y203D02*
X327Y203D01*
X238Y202D02*
X327Y202D01*
X238Y201D02*
X327Y201D01*
X238Y200D02*
X327Y200D01*
X238Y199D02*
X327Y199D01*
X238Y198D02*
X327Y198D01*
X238Y197D02*
X327Y197D01*
X238Y196D02*
X327Y196D01*
X238Y195D02*
X327Y195D01*
X238Y194D02*
X327Y194D01*
X238Y193D02*
X327Y193D01*
X238Y192D02*
X327Y192D01*
X238Y191D02*
X327Y191D01*
X238Y190D02*
X327Y190D01*
X238Y189D02*
X327Y189D01*
X238Y188D02*
X327Y188D01*
D02*
G04 End of Mask0*
M02*