; NON-PLATED HOLES START AT T1
; THROUGH (PLATED) HOLES START AT T100
M48
INCH
T1C0.137795
T100C0.060000
T101C0.042000
T102C0.038000
T103C0.047244
T104C0.015748
T105C0.031497
T106C0.035000
T107C0.040000
T108C0.036000
%
T1
X022630Y008200
X010824Y025908
X069774Y008200
X069851Y025908
T100
X039272Y014612
X073770Y004958
X014688Y031663
X063110Y020096
X042225Y002998
X061890Y031707
X039483Y020096
X074754Y014612
X076697Y020338
X054079Y002998
X015909Y020053
X051127Y014612
X054054Y031708
X073744Y029992
X065827Y031707
X051338Y020096
X065852Y002998
X065852Y004958
X050117Y029747
X053070Y020093
X026505Y031657
X077681Y029992
X052859Y014609
X004126Y020088
X077707Y002998
X030442Y031658
X065827Y029747
X054079Y004958
X064843Y020093
X038263Y031707
X050142Y004958
X006842Y031699
X017641Y020049
X018625Y031664
X050117Y031707
X005858Y020085
X041215Y020093
X014688Y029703
X050142Y002998
X027725Y020046
X077707Y004958
X064632Y014609
X061915Y004958
X042225Y004958
X041004Y014609
X062899Y014612
X042200Y031708
X073744Y031952
X029458Y020043
X038288Y002998
X061890Y029747
X006842Y029739
X018625Y029703
X054054Y029747
X002905Y029739
X038263Y029747
X077681Y031953
X076486Y014609
X042200Y029747
X026505Y029697
X002905Y031699
X074965Y020342
X038288Y004958
X030442Y029697
X061915Y002998
X073770Y002998
T101
X059964Y018122
X067964Y018122
T102
X063374Y013230
X076223Y021721
X051595Y021475
X016166Y021432
X015166Y021432
X074228Y013230
X017166Y021432
X065374Y013230
X041747Y013230
X052601Y013230
X062368Y021475
X064368Y021475
X028983Y021425
X075223Y021721
X029983Y021425
X006383Y021467
X027983Y021425
X050595Y021475
X003383Y021467
X065368Y021475
X076228Y013230
X053601Y013230
X062374Y013230
X075228Y013230
X051601Y013230
X005383Y021467
X040747Y013230
X052595Y021475
X018166Y021432
X074222Y021721
X038747Y013230
X039747Y013230
X050601Y013230
X063368Y021475
X077223Y021721
X026983Y021425
X041741Y021475
X040741Y021475
X077229Y013230
X064374Y013230
X053595Y021475
X039741Y021475
X038741Y021475
X004383Y021467
T103
X021415Y011889
X002832Y005201
X022863Y011889
X024311Y011889
X002832Y002305
X002832Y003753
T104
X035911Y004967
T105
X008820Y006484
X007836Y006484
T106
X016851Y007447
X015079Y004888
X015079Y007447
X016851Y004888
X011057Y002472
X011057Y006472
T107
X062026Y016045
X066026Y016045
T108
X016858Y011407
X014902Y009411
X017858Y012409
X009902Y009411
X015902Y009411
X010902Y009411
X003902Y015411
X010902Y015411
X003902Y009411
X012902Y009411
X011902Y009411
X013902Y015411
X007902Y009411
X015902Y015411
X013902Y009411
X004902Y015411
X002902Y015411
X009902Y015411
X008902Y015411
X012902Y015411
X016858Y012409
X017858Y011407
X002902Y009411
X005902Y015411
X008902Y009411
X011902Y015411
X007902Y015411
X006902Y015411
X016902Y015411
X005902Y009411
X016902Y009411
X016858Y013409
X014902Y015411
X017858Y013409
X004902Y009411
X006902Y009411
T00
M30
