G04 MADE WITH FRITZING*
G04 WWW.FRITZING.ORG*
G04 DOUBLE SIDED*
G04 HOLES PLATED*
G04 CONTOUR ON CENTER OF CONTOUR VECTOR*
%ASAXBY*%
%FSLAX23Y23*%
%MOIN*%
%OFA0B0*%
%SFA1.0B1.0*%
%ADD10C,0.080000*%
%ADD11C,0.070000*%
%ADD12C,0.100000*%
%ADD13C,0.078000*%
%ADD14C,0.075000*%
%ADD15C,0.062992*%
%ADD16C,0.082000*%
%ADD17C,0.024000*%
%ADD18C,0.020000*%
%ADD19C,0.017000*%
%ADD20C,0.015748*%
%ADD21R,0.001000X0.001000*%
%LNCOPPER0*%
G90*
G70*
G54D10*
X581Y662D03*
X681Y662D03*
X781Y662D03*
X881Y662D03*
X981Y662D03*
X1081Y662D03*
X1181Y662D03*
X1281Y662D03*
G54D11*
X1689Y1478D03*
X1589Y1478D03*
X1489Y1478D03*
X1389Y1478D03*
X1289Y1478D03*
X1189Y1478D03*
X1089Y1478D03*
X989Y1478D03*
X889Y1478D03*
X789Y1478D03*
X689Y1478D03*
X589Y1478D03*
X489Y1478D03*
X389Y1478D03*
X289Y1478D03*
X1689Y878D03*
X1589Y878D03*
X1489Y878D03*
X1389Y878D03*
X1289Y878D03*
X1189Y878D03*
X1089Y878D03*
X989Y878D03*
X889Y878D03*
X789Y878D03*
X689Y878D03*
X589Y878D03*
X489Y878D03*
X389Y878D03*
X289Y878D03*
X1785Y1277D03*
X1685Y1277D03*
X1785Y1177D03*
X1685Y1177D03*
X1785Y1077D03*
X1685Y1077D03*
G54D12*
X411Y1945D03*
G54D13*
X337Y2083D03*
X437Y2083D03*
G54D12*
X585Y1945D03*
G54D13*
X537Y2083D03*
X637Y2083D03*
G54D12*
X683Y2910D03*
X683Y3106D03*
X289Y3106D03*
X289Y2910D03*
X1590Y1942D03*
G54D13*
X1516Y2080D03*
X1616Y2080D03*
G54D12*
X1763Y1941D03*
G54D13*
X1716Y2080D03*
X1816Y2080D03*
G54D12*
X1861Y2907D03*
X1861Y3103D03*
X1468Y3103D03*
X1468Y2907D03*
X6514Y1397D03*
G54D13*
X6588Y1259D03*
X6488Y1259D03*
G54D12*
X6340Y1398D03*
G54D13*
X6388Y1259D03*
X6288Y1259D03*
G54D12*
X6242Y432D03*
X6242Y236D03*
X6636Y236D03*
X6636Y432D03*
X5561Y1397D03*
G54D13*
X5635Y1259D03*
X5535Y1259D03*
G54D12*
X5388Y1398D03*
G54D13*
X5435Y1259D03*
X5335Y1259D03*
G54D12*
X5289Y432D03*
X5289Y236D03*
X5683Y236D03*
X5683Y432D03*
X4625Y1397D03*
G54D13*
X4699Y1259D03*
X4599Y1259D03*
G54D12*
X4451Y1398D03*
G54D13*
X4499Y1259D03*
X4399Y1259D03*
G54D12*
X4353Y432D03*
X4353Y236D03*
X4747Y236D03*
X4747Y432D03*
X3649Y1397D03*
G54D13*
X3723Y1259D03*
X3623Y1259D03*
G54D12*
X3476Y1398D03*
G54D13*
X3523Y1259D03*
X3423Y1259D03*
G54D12*
X3377Y432D03*
X3377Y236D03*
X3771Y236D03*
X3771Y432D03*
X6361Y1971D03*
G54D13*
X6287Y2109D03*
X6387Y2109D03*
G54D12*
X6535Y1970D03*
G54D13*
X6487Y2109D03*
X6587Y2109D03*
G54D12*
X6633Y2936D03*
X6633Y3132D03*
X6239Y3132D03*
X6239Y2936D03*
X5409Y1954D03*
G54D13*
X5335Y2092D03*
X5435Y2092D03*
G54D12*
X5582Y1954D03*
G54D13*
X5535Y2092D03*
X5635Y2092D03*
G54D12*
X5681Y2919D03*
X5681Y3115D03*
X5287Y3115D03*
X5287Y2919D03*
X4472Y1954D03*
G54D13*
X4398Y2092D03*
X4498Y2092D03*
G54D12*
X4646Y1954D03*
G54D13*
X4598Y2092D03*
X4698Y2092D03*
G54D12*
X4744Y2919D03*
X4744Y3115D03*
X4350Y3115D03*
X4350Y2919D03*
X3497Y1946D03*
G54D13*
X3423Y2084D03*
X3523Y2084D03*
G54D12*
X3670Y1946D03*
G54D13*
X3623Y2084D03*
X3723Y2084D03*
G54D12*
X3768Y2911D03*
X3768Y3107D03*
X3375Y3107D03*
X3375Y2911D03*
X2538Y1941D03*
G54D13*
X2464Y2079D03*
X2564Y2079D03*
G54D12*
X2712Y1941D03*
G54D13*
X2664Y2079D03*
X2764Y2079D03*
G54D12*
X2810Y2906D03*
X2810Y3102D03*
X2416Y3102D03*
X2416Y2906D03*
G54D10*
X2430Y1125D03*
X2285Y1125D03*
X2140Y1125D03*
X282Y120D03*
X282Y265D03*
X282Y410D03*
G54D14*
X1110Y452D03*
X1110Y152D03*
G54D15*
X782Y445D03*
X881Y445D03*
G54D14*
X1507Y425D03*
X1507Y681D03*
X1684Y425D03*
X1684Y681D03*
G54D16*
X5995Y1775D03*
X6795Y1775D03*
G54D10*
X6202Y1554D03*
X6602Y1554D03*
G54D17*
X351Y2057D02*
X392Y1982D01*
D02*
X407Y2083D02*
X367Y2083D01*
D02*
X571Y1984D02*
X547Y2055D01*
D02*
X627Y2055D02*
X599Y1983D01*
D02*
X1725Y2051D02*
X1750Y1980D01*
D02*
X1805Y2051D02*
X1778Y1980D01*
D02*
X1664Y2195D02*
X727Y2182D01*
D02*
X727Y2182D02*
X657Y2105D01*
D02*
X1703Y2107D02*
X1664Y2195D01*
D02*
X2698Y1980D02*
X2674Y2051D01*
D02*
X2754Y2051D02*
X2726Y1979D01*
D02*
X2627Y2209D02*
X2656Y2108D01*
D02*
X1898Y2195D02*
X2627Y2209D01*
D02*
X1833Y2104D02*
X1898Y2195D01*
D02*
X3657Y1985D02*
X3632Y2056D01*
D02*
X3712Y2056D02*
X3685Y1984D01*
D02*
X3577Y2209D02*
X2794Y2209D01*
D02*
X2794Y2209D02*
X2771Y2108D01*
D02*
X3612Y2112D02*
X3577Y2209D01*
D02*
X2519Y1977D02*
X2478Y2053D01*
D02*
X2559Y2049D02*
X2546Y1982D01*
D02*
X4453Y1990D02*
X4413Y2065D01*
D02*
X4493Y2062D02*
X4480Y1994D01*
D02*
X4632Y1992D02*
X4608Y2063D01*
D02*
X4660Y1992D02*
X4688Y2064D01*
D02*
X6342Y2007D02*
X6301Y2082D01*
D02*
X6382Y2079D02*
X6369Y2011D01*
D02*
X5569Y1992D02*
X5545Y2063D01*
D02*
X5624Y2064D02*
X5597Y1992D01*
D02*
X6521Y2009D02*
X6497Y2080D01*
D02*
X6577Y2080D02*
X6549Y2009D01*
D02*
X3641Y1357D02*
X3629Y1289D01*
D02*
X3668Y1361D02*
X3709Y1286D01*
D02*
X3461Y1359D02*
X3434Y1288D01*
D02*
X3489Y1359D02*
X3513Y1288D01*
D02*
X4437Y1359D02*
X4410Y1288D01*
D02*
X4465Y1359D02*
X4489Y1288D01*
D02*
X5373Y1359D02*
X5346Y1288D01*
D02*
X5401Y1359D02*
X5426Y1288D01*
D02*
X6326Y1359D02*
X6299Y1288D01*
D02*
X6354Y1359D02*
X6378Y1288D01*
D02*
X3523Y1486D02*
X3495Y1434D01*
D02*
X4406Y1493D02*
X3523Y1486D01*
D02*
X4434Y1435D02*
X4406Y1493D01*
D02*
X5376Y1500D02*
X4513Y1500D01*
D02*
X4513Y1500D02*
X4473Y1433D01*
D02*
X5383Y1439D02*
X5376Y1500D01*
D02*
X6272Y1460D02*
X6310Y1425D01*
D02*
X5490Y1486D02*
X6272Y1460D01*
D02*
X5419Y1425D02*
X5490Y1486D01*
D02*
X5530Y1526D02*
X5577Y1547D01*
D02*
X6500Y1861D02*
X6522Y1931D01*
D02*
X5938Y1861D02*
X6500Y1861D01*
D02*
X5577Y1547D02*
X5938Y1861D01*
D02*
X5418Y1425D02*
X5530Y1526D01*
D02*
X5483Y2195D02*
X5521Y2119D01*
D02*
X4767Y2189D02*
X5483Y2195D01*
D02*
X4716Y2116D02*
X4767Y2189D01*
D02*
X4560Y2195D02*
X4588Y2120D01*
D02*
X3784Y2195D02*
X4560Y2195D01*
D02*
X3737Y2110D02*
X3784Y2195D01*
D02*
X5646Y255D02*
X5326Y414D01*
D02*
X4710Y255D02*
X4390Y414D01*
D02*
X3734Y255D02*
X3414Y414D01*
D02*
X6596Y2954D02*
X6276Y3113D01*
D02*
X5644Y2937D02*
X5324Y3097D01*
D02*
X4707Y2937D02*
X4387Y3097D01*
D02*
X3732Y2929D02*
X3412Y3089D01*
D02*
X2773Y2924D02*
X2453Y3084D01*
D02*
X1825Y2925D02*
X1505Y3084D01*
D02*
X646Y2929D02*
X326Y3088D01*
D02*
X130Y116D02*
X99Y2179D01*
D02*
X99Y2179D02*
X513Y2195D01*
D02*
X247Y119D02*
X130Y116D01*
D02*
X513Y2195D02*
X531Y2113D01*
D02*
X4196Y609D02*
X3559Y609D01*
D02*
X3559Y609D02*
X3407Y461D01*
D02*
X4326Y463D02*
X4196Y609D01*
D02*
X5151Y617D02*
X4545Y617D01*
D02*
X4545Y617D02*
X4383Y461D01*
D02*
X5265Y465D02*
X5151Y617D01*
D02*
X6169Y609D02*
X5454Y617D01*
D02*
X5454Y617D02*
X5317Y463D01*
D02*
X6226Y470D02*
X6169Y609D01*
D02*
X6937Y1176D02*
X6270Y462D01*
D02*
X6937Y2784D02*
X6937Y1176D01*
D02*
X6670Y2917D02*
X6937Y2784D01*
D02*
X6052Y2760D02*
X5718Y2903D01*
D02*
X6448Y2753D02*
X6052Y2760D01*
D02*
X6604Y2907D02*
X6448Y2753D01*
D02*
X5454Y2745D02*
X5019Y2745D01*
D02*
X5019Y2745D02*
X4779Y2897D01*
D02*
X5648Y2894D02*
X5454Y2745D01*
D02*
X4553Y2737D02*
X3994Y2737D01*
D02*
X3994Y2737D02*
X3801Y2886D01*
D02*
X4714Y2891D02*
X4553Y2737D01*
D02*
X3590Y2737D02*
X3062Y2745D01*
D02*
X3062Y2745D02*
X2845Y2884D01*
D02*
X3739Y2882D02*
X3590Y2737D01*
D02*
X2627Y2737D02*
X2127Y2739D01*
D02*
X2127Y2739D02*
X1896Y2885D01*
D02*
X2780Y2878D02*
X2627Y2737D01*
D02*
X1636Y2739D02*
X982Y2730D01*
D02*
X982Y2730D02*
X718Y2889D01*
D02*
X1828Y2882D02*
X1636Y2739D01*
D02*
X3336Y433D02*
X2813Y438D01*
D02*
X588Y849D02*
X582Y693D01*
D02*
X682Y693D02*
X688Y849D01*
D02*
X782Y693D02*
X788Y849D01*
D02*
X882Y693D02*
X888Y849D01*
D02*
X982Y693D02*
X988Y849D01*
D02*
X1082Y693D02*
X1088Y849D01*
D02*
X1182Y693D02*
X1188Y849D01*
D02*
X1282Y693D02*
X1288Y849D01*
D02*
X295Y1897D02*
X290Y1507D01*
D02*
X331Y2054D02*
X295Y1897D01*
D02*
X494Y1818D02*
X490Y1507D01*
D02*
X911Y1824D02*
X494Y1818D01*
D02*
X1016Y1861D02*
X911Y1824D01*
D02*
X2057Y1861D02*
X1016Y1861D01*
D02*
X2208Y2069D02*
X2057Y1861D01*
D02*
X2434Y2078D02*
X2208Y2069D01*
D02*
X687Y1705D02*
X689Y1507D01*
D02*
X998Y1716D02*
X687Y1705D01*
D02*
X1061Y1761D02*
X998Y1716D01*
D02*
X2153Y1764D02*
X1061Y1761D01*
D02*
X2227Y1812D02*
X2153Y1764D01*
D02*
X3279Y1820D02*
X2227Y1812D01*
D02*
X3353Y1864D02*
X3279Y1820D01*
D02*
X4064Y1875D02*
X3353Y1864D01*
D02*
X4196Y2069D02*
X4064Y1875D01*
D02*
X4368Y2088D02*
X4196Y2069D01*
D02*
X1061Y1609D02*
X894Y1609D01*
D02*
X894Y1609D02*
X890Y1507D01*
D02*
X1131Y1657D02*
X1061Y1609D01*
D02*
X2279Y1680D02*
X1131Y1657D01*
D02*
X2409Y1705D02*
X2279Y1680D01*
D02*
X3443Y1709D02*
X2409Y1705D01*
D02*
X3492Y1749D02*
X3443Y1709D01*
D02*
X4530Y1774D02*
X3492Y1749D01*
D02*
X4628Y1807D02*
X4530Y1774D01*
D02*
X5699Y1807D02*
X4628Y1807D01*
D02*
X5806Y1856D02*
X5699Y1807D01*
D02*
X6018Y2102D02*
X5806Y1856D01*
D02*
X6257Y2108D02*
X6018Y2102D01*
D02*
X3155Y1179D02*
X3015Y1541D01*
D02*
X3015Y1541D02*
X1294Y1561D01*
D02*
X3630Y1179D02*
X3155Y1179D01*
D02*
X1294Y1561D02*
X1291Y1507D01*
D02*
X3626Y1229D02*
X3630Y1179D01*
D02*
X2277Y1479D02*
X1718Y1478D01*
D02*
X2284Y1160D02*
X2277Y1479D01*
D02*
X2122Y997D02*
X1602Y997D01*
D02*
X1602Y997D02*
X1590Y1449D01*
D02*
X2135Y1091D02*
X2122Y997D01*
D02*
X3194Y50D02*
X546Y55D01*
D02*
X546Y55D02*
X538Y415D01*
D02*
X538Y415D02*
X317Y411D01*
D02*
X3348Y207D02*
X3194Y50D01*
D02*
X3574Y50D02*
X4196Y50D01*
D02*
X4196Y50D02*
X4326Y205D01*
D02*
X3407Y208D02*
X3574Y50D01*
D02*
X4545Y50D02*
X5128Y50D01*
D02*
X5128Y50D02*
X5263Y205D01*
D02*
X4382Y208D02*
X4545Y50D01*
D02*
X5485Y50D02*
X6052Y50D01*
D02*
X6052Y50D02*
X6213Y207D01*
D02*
X5319Y208D02*
X5485Y50D01*
D02*
X6270Y266D02*
X7000Y1036D01*
D02*
X7000Y1036D02*
X7015Y2954D01*
D02*
X7015Y2954D02*
X6670Y3114D01*
D02*
X6419Y3259D02*
X5978Y3259D01*
D02*
X5978Y3259D02*
X5718Y3133D01*
D02*
X6598Y3153D02*
X6419Y3259D01*
D02*
X5463Y3259D02*
X4901Y3272D01*
D02*
X4901Y3272D02*
X4773Y3144D01*
D02*
X5646Y3138D02*
X5463Y3259D01*
D02*
X4633Y3266D02*
X3965Y3272D01*
D02*
X3965Y3272D02*
X3800Y3134D01*
D02*
X4720Y3148D02*
X4633Y3266D01*
D02*
X3590Y3259D02*
X2968Y3266D01*
D02*
X2968Y3266D02*
X2839Y3132D01*
D02*
X3737Y3134D02*
X3590Y3259D01*
D02*
X2700Y3272D02*
X2085Y3259D01*
D02*
X2085Y3259D02*
X1895Y3126D01*
D02*
X2788Y3137D02*
X2700Y3272D01*
D02*
X1684Y3272D02*
X854Y3266D01*
D02*
X854Y3266D02*
X713Y3134D01*
D02*
X1832Y3131D02*
X1684Y3272D01*
D02*
X2813Y205D02*
X1609Y197D01*
D02*
X2813Y438D02*
X2813Y205D01*
D02*
X1609Y190D02*
X1139Y154D01*
D02*
X1609Y190D02*
X1590Y849D01*
D02*
X2813Y438D02*
X2790Y1044D01*
D02*
X2790Y1044D02*
X2635Y1129D01*
D02*
X2635Y1129D02*
X2465Y1126D01*
D02*
X1492Y849D02*
X1504Y710D01*
D02*
X1679Y314D02*
X1683Y397D01*
D02*
X1609Y197D02*
X1679Y314D01*
D02*
X1609Y190D02*
X1609Y197D01*
D02*
X6774Y1751D02*
X6622Y1578D01*
D02*
X6017Y1752D02*
X6180Y1577D01*
D02*
X6553Y2202D02*
X5724Y2195D01*
D02*
X5724Y2195D02*
X5654Y2115D01*
D02*
X6577Y2137D02*
X6553Y2202D01*
G54D18*
X551Y692D02*
X611Y692D01*
X611Y632D01*
X551Y632D01*
X551Y692D01*
D02*
G54D19*
X1716Y1451D02*
X1663Y1451D01*
X1663Y1504D01*
X1716Y1504D01*
X1716Y1451D01*
D02*
G54D20*
X806Y421D02*
X759Y421D01*
X759Y469D01*
X806Y469D01*
X806Y421D01*
D02*
G54D21*
X2390Y1165D02*
X2469Y1165D01*
X2390Y1164D02*
X2469Y1164D01*
X2390Y1163D02*
X2469Y1163D01*
X2390Y1162D02*
X2469Y1162D01*
X2390Y1161D02*
X2469Y1161D01*
X2390Y1160D02*
X2469Y1160D01*
X2390Y1159D02*
X2469Y1159D01*
X2390Y1158D02*
X2469Y1158D01*
X2390Y1157D02*
X2469Y1157D01*
X2390Y1156D02*
X2469Y1156D01*
X2390Y1155D02*
X2469Y1155D01*
X2390Y1154D02*
X2469Y1154D01*
X2390Y1153D02*
X2469Y1153D01*
X2390Y1152D02*
X2469Y1152D01*
X2390Y1151D02*
X2469Y1151D01*
X2390Y1150D02*
X2469Y1150D01*
X2390Y1149D02*
X2424Y1149D01*
X2434Y1149D02*
X2469Y1149D01*
X2390Y1148D02*
X2421Y1148D01*
X2438Y1148D02*
X2469Y1148D01*
X2390Y1147D02*
X2418Y1147D01*
X2440Y1147D02*
X2469Y1147D01*
X2390Y1146D02*
X2416Y1146D01*
X2442Y1146D02*
X2469Y1146D01*
X2390Y1145D02*
X2415Y1145D01*
X2444Y1145D02*
X2469Y1145D01*
X2390Y1144D02*
X2414Y1144D01*
X2445Y1144D02*
X2469Y1144D01*
X2390Y1143D02*
X2413Y1143D01*
X2446Y1143D02*
X2469Y1143D01*
X2390Y1142D02*
X2412Y1142D01*
X2447Y1142D02*
X2469Y1142D01*
X2390Y1141D02*
X2411Y1141D01*
X2448Y1141D02*
X2469Y1141D01*
X2390Y1140D02*
X2410Y1140D01*
X2449Y1140D02*
X2469Y1140D01*
X2390Y1139D02*
X2409Y1139D01*
X2449Y1139D02*
X2469Y1139D01*
X2390Y1138D02*
X2409Y1138D01*
X2450Y1138D02*
X2469Y1138D01*
X2390Y1137D02*
X2408Y1137D01*
X2451Y1137D02*
X2469Y1137D01*
X2390Y1136D02*
X2407Y1136D01*
X2451Y1136D02*
X2469Y1136D01*
X2390Y1135D02*
X2407Y1135D01*
X2452Y1135D02*
X2469Y1135D01*
X2390Y1134D02*
X2407Y1134D01*
X2452Y1134D02*
X2469Y1134D01*
X2390Y1133D02*
X2406Y1133D01*
X2452Y1133D02*
X2469Y1133D01*
X2390Y1132D02*
X2406Y1132D01*
X2453Y1132D02*
X2469Y1132D01*
X2390Y1131D02*
X2406Y1131D01*
X2453Y1131D02*
X2469Y1131D01*
X2390Y1130D02*
X2406Y1130D01*
X2453Y1130D02*
X2469Y1130D01*
X2390Y1129D02*
X2405Y1129D01*
X2453Y1129D02*
X2469Y1129D01*
X2390Y1128D02*
X2405Y1128D01*
X2453Y1128D02*
X2469Y1128D01*
X2390Y1127D02*
X2405Y1127D01*
X2453Y1127D02*
X2469Y1127D01*
X2390Y1126D02*
X2405Y1126D01*
X2453Y1126D02*
X2469Y1126D01*
X2390Y1125D02*
X2405Y1125D01*
X2453Y1125D02*
X2469Y1125D01*
X2390Y1124D02*
X2405Y1124D01*
X2453Y1124D02*
X2469Y1124D01*
X2390Y1123D02*
X2405Y1123D01*
X2453Y1123D02*
X2469Y1123D01*
X2390Y1122D02*
X2405Y1122D01*
X2453Y1122D02*
X2469Y1122D01*
X2390Y1121D02*
X2406Y1121D01*
X2453Y1121D02*
X2469Y1121D01*
X2390Y1120D02*
X2406Y1120D01*
X2453Y1120D02*
X2469Y1120D01*
X2390Y1119D02*
X2406Y1119D01*
X2452Y1119D02*
X2469Y1119D01*
X2390Y1118D02*
X2407Y1118D01*
X2452Y1118D02*
X2469Y1118D01*
X2390Y1117D02*
X2407Y1117D01*
X2452Y1117D02*
X2469Y1117D01*
X2390Y1116D02*
X2407Y1116D01*
X2451Y1116D02*
X2469Y1116D01*
X2390Y1115D02*
X2408Y1115D01*
X2451Y1115D02*
X2469Y1115D01*
X2390Y1114D02*
X2408Y1114D01*
X2450Y1114D02*
X2469Y1114D01*
X2390Y1113D02*
X2409Y1113D01*
X2450Y1113D02*
X2469Y1113D01*
X2390Y1112D02*
X2410Y1112D01*
X2449Y1112D02*
X2469Y1112D01*
X2390Y1111D02*
X2410Y1111D01*
X2448Y1111D02*
X2469Y1111D01*
X2390Y1110D02*
X2411Y1110D01*
X2447Y1110D02*
X2469Y1110D01*
X2390Y1109D02*
X2412Y1109D01*
X2446Y1109D02*
X2469Y1109D01*
X2390Y1108D02*
X2413Y1108D01*
X2445Y1108D02*
X2469Y1108D01*
X2390Y1107D02*
X2414Y1107D01*
X2444Y1107D02*
X2469Y1107D01*
X2390Y1106D02*
X2416Y1106D01*
X2443Y1106D02*
X2469Y1106D01*
X2390Y1105D02*
X2418Y1105D01*
X2441Y1105D02*
X2469Y1105D01*
X2390Y1104D02*
X2420Y1104D01*
X2439Y1104D02*
X2469Y1104D01*
X2390Y1103D02*
X2423Y1103D01*
X2436Y1103D02*
X2469Y1103D01*
X2390Y1102D02*
X2469Y1102D01*
X2390Y1101D02*
X2469Y1101D01*
X2390Y1100D02*
X2469Y1100D01*
X2390Y1099D02*
X2469Y1099D01*
X2390Y1098D02*
X2469Y1098D01*
X2390Y1097D02*
X2469Y1097D01*
X2390Y1096D02*
X2469Y1096D01*
X2390Y1095D02*
X2469Y1095D01*
X2390Y1094D02*
X2469Y1094D01*
X2390Y1093D02*
X2469Y1093D01*
X2390Y1092D02*
X2469Y1092D01*
X2390Y1091D02*
X2469Y1091D01*
X2390Y1090D02*
X2469Y1090D01*
X2390Y1089D02*
X2469Y1089D01*
X2390Y1088D02*
X2469Y1088D01*
X2390Y1087D02*
X2469Y1087D01*
X2390Y1086D02*
X2468Y1086D01*
X242Y160D02*
X321Y160D01*
X242Y159D02*
X321Y159D01*
X242Y158D02*
X321Y158D01*
X242Y157D02*
X321Y157D01*
X242Y156D02*
X321Y156D01*
X242Y155D02*
X321Y155D01*
X242Y154D02*
X321Y154D01*
X242Y153D02*
X321Y153D01*
X242Y152D02*
X321Y152D01*
X242Y151D02*
X321Y151D01*
X242Y150D02*
X321Y150D01*
X242Y149D02*
X321Y149D01*
X242Y148D02*
X321Y148D01*
X242Y147D02*
X321Y147D01*
X242Y146D02*
X321Y146D01*
X242Y145D02*
X321Y145D01*
X242Y144D02*
X277Y144D01*
X287Y144D02*
X321Y144D01*
X242Y143D02*
X273Y143D01*
X290Y143D02*
X321Y143D01*
X242Y142D02*
X271Y142D01*
X293Y142D02*
X321Y142D01*
X242Y141D02*
X269Y141D01*
X294Y141D02*
X321Y141D01*
X242Y140D02*
X267Y140D01*
X296Y140D02*
X321Y140D01*
X242Y139D02*
X266Y139D01*
X297Y139D02*
X321Y139D01*
X242Y138D02*
X265Y138D01*
X298Y138D02*
X321Y138D01*
X242Y137D02*
X264Y137D01*
X299Y137D02*
X321Y137D01*
X242Y136D02*
X263Y136D01*
X300Y136D02*
X321Y136D01*
X242Y135D02*
X262Y135D01*
X301Y135D02*
X321Y135D01*
X242Y134D02*
X262Y134D01*
X302Y134D02*
X321Y134D01*
X242Y133D02*
X261Y133D01*
X302Y133D02*
X321Y133D01*
X242Y132D02*
X260Y132D01*
X303Y132D02*
X321Y132D01*
X242Y131D02*
X260Y131D01*
X303Y131D02*
X321Y131D01*
X242Y130D02*
X259Y130D01*
X304Y130D02*
X321Y130D01*
X242Y129D02*
X259Y129D01*
X304Y129D02*
X321Y129D01*
X242Y128D02*
X259Y128D01*
X305Y128D02*
X321Y128D01*
X242Y127D02*
X258Y127D01*
X305Y127D02*
X321Y127D01*
X242Y126D02*
X258Y126D01*
X305Y126D02*
X321Y126D01*
X242Y125D02*
X258Y125D01*
X305Y125D02*
X321Y125D01*
X242Y124D02*
X258Y124D01*
X306Y124D02*
X321Y124D01*
X242Y123D02*
X258Y123D01*
X306Y123D02*
X321Y123D01*
X242Y122D02*
X258Y122D01*
X306Y122D02*
X321Y122D01*
X242Y121D02*
X257Y121D01*
X306Y121D02*
X321Y121D01*
X242Y120D02*
X258Y120D01*
X306Y120D02*
X321Y120D01*
X242Y119D02*
X258Y119D01*
X306Y119D02*
X321Y119D01*
X242Y118D02*
X258Y118D01*
X306Y118D02*
X321Y118D01*
X242Y117D02*
X258Y117D01*
X305Y117D02*
X321Y117D01*
X242Y116D02*
X258Y116D01*
X305Y116D02*
X321Y116D01*
X242Y115D02*
X258Y115D01*
X305Y115D02*
X321Y115D01*
X242Y114D02*
X259Y114D01*
X305Y114D02*
X321Y114D01*
X242Y113D02*
X259Y113D01*
X304Y113D02*
X321Y113D01*
X242Y112D02*
X259Y112D01*
X304Y112D02*
X321Y112D01*
X242Y111D02*
X260Y111D01*
X304Y111D02*
X321Y111D01*
X242Y110D02*
X260Y110D01*
X303Y110D02*
X321Y110D01*
X242Y109D02*
X261Y109D01*
X303Y109D02*
X321Y109D01*
X242Y108D02*
X261Y108D01*
X302Y108D02*
X321Y108D01*
X242Y107D02*
X262Y107D01*
X301Y107D02*
X321Y107D01*
X242Y106D02*
X263Y106D01*
X300Y106D02*
X321Y106D01*
X242Y105D02*
X264Y105D01*
X300Y105D02*
X321Y105D01*
X242Y104D02*
X265Y104D01*
X299Y104D02*
X321Y104D01*
X242Y103D02*
X266Y103D01*
X298Y103D02*
X321Y103D01*
X242Y102D02*
X267Y102D01*
X296Y102D02*
X321Y102D01*
X242Y101D02*
X268Y101D01*
X295Y101D02*
X321Y101D01*
X242Y100D02*
X270Y100D01*
X293Y100D02*
X321Y100D01*
X242Y99D02*
X272Y99D01*
X291Y99D02*
X321Y99D01*
X242Y98D02*
X275Y98D01*
X288Y98D02*
X321Y98D01*
X242Y97D02*
X321Y97D01*
X242Y96D02*
X321Y96D01*
X242Y95D02*
X321Y95D01*
X242Y94D02*
X321Y94D01*
X242Y93D02*
X321Y93D01*
X242Y92D02*
X321Y92D01*
X242Y91D02*
X321Y91D01*
X242Y90D02*
X321Y90D01*
X242Y89D02*
X321Y89D01*
X242Y88D02*
X321Y88D01*
X242Y87D02*
X321Y87D01*
X242Y86D02*
X321Y86D01*
X242Y85D02*
X321Y85D01*
X242Y84D02*
X321Y84D01*
X242Y83D02*
X321Y83D01*
X242Y82D02*
X321Y82D01*
X242Y81D02*
X321Y81D01*
D02*
G04 End of Copper0*
M02*