; NON-PLATED HOLES START AT T1
; THROUGH (PLATED) HOLES START AT T100
M48
INCH
T1C0.137795
T100C0.036000
T101C0.060000
T102C0.031497
T103C0.042000
T104C0.040000
T105C0.047244
T106C0.038000
T107C0.035000
%
T1
X010813Y025273
X059588Y007564
X059588Y025273
T100
X014891Y014776
X011891Y014776
X008891Y008776
X017847Y011773
X017847Y012773
X013891Y008776
X004891Y008776
X003891Y008776
X015891Y008776
X015891Y014776
X016891Y014776
X002891Y008776
X010891Y008776
X006891Y008776
X014891Y008776
X002891Y014776
X012891Y014776
X016847Y012773
X003891Y014776
X013891Y014776
X010891Y014776
X004891Y014776
X016891Y008776
X008891Y014776
X007891Y014776
X005891Y014776
X005891Y008776
X016847Y011773
X011891Y008776
X016847Y010771
X012891Y008776
X009891Y014776
X007891Y008776
X009891Y008776
X006891Y014776
X017847Y010771
T101
X056806Y029189
X025384Y019411
X062419Y002362
X062394Y031316
X017630Y019414
X043504Y031149
X066331Y029357
X036488Y013973
X052869Y031149
X014677Y031028
X047441Y029189
X055611Y013973
X033747Y029111
X052894Y004323
X037684Y031072
X066356Y004323
X002894Y029103
X055822Y019535
X034967Y019461
X043529Y002362
X043529Y004323
X014677Y029068
X033772Y002362
X054090Y019538
X052894Y002362
X034756Y013977
X005846Y019449
X065346Y019702
X037709Y004322
X028101Y029061
X065135Y013973
X018614Y029068
X056806Y031149
X018614Y031028
X037684Y029111
X062419Y004323
X063614Y019706
X027116Y019407
X056831Y002363
X046457Y019535
X046246Y013973
X047441Y031149
X066331Y031317
X004114Y019453
X052869Y029189
X024163Y031021
X066356Y002363
X033747Y031071
X002894Y031063
X044724Y019538
X024163Y029061
X037709Y002363
X044513Y013977
X006831Y029103
X033772Y004322
X043504Y029189
X047466Y004323
X063403Y013977
X015897Y019417
X036699Y019457
X056831Y004323
X047466Y002363
X053879Y013977
X062394Y029357
X028101Y031022
X006831Y031064
T102
X007824Y004450
X008809Y004450
T103
X067953Y017487
X059953Y017487
T104
X062015Y015409
X012809Y006617
X008809Y006617
X007809Y006617
X006809Y006617
X010809Y006617
X009809Y006617
X005809Y006617
X066015Y015409
X011809Y006617
T105
X024299Y011253
X022851Y011253
X002821Y002651
X002821Y001203
X002821Y004099
X021403Y011253
T106
X062878Y012594
X026642Y020790
X016155Y020796
X044982Y020917
X065872Y021085
X043988Y012594
X054347Y020917
X024641Y020790
X003372Y020832
X037225Y020840
X034231Y012594
X017155Y020796
X027642Y020790
X054353Y012594
X065878Y012594
X046982Y020917
X037231Y012594
X036231Y012594
X045982Y020917
X036225Y020840
X053353Y012594
X055353Y012594
X005372Y020832
X045988Y012594
X062872Y021085
X018155Y020796
X034225Y020840
X056347Y020917
X035231Y012594
X063872Y021085
X064872Y021085
X006372Y020832
X004372Y020832
X015155Y020796
X063878Y012594
X064878Y012594
X044988Y012594
X046988Y012594
X056353Y012594
X025642Y020790
X043982Y020917
X055347Y020917
X035225Y020840
X053347Y020917
T107
X011101Y004516
X011101Y001516
X016839Y006811
X015068Y006811
X016839Y004252
X015068Y004252
T00
M30
