G04 MADE WITH FRITZING*
G04 WWW.FRITZING.ORG*
G04 DOUBLE SIDED*
G04 HOLES PLATED*
G04 CONTOUR ON CENTER OF CONTOUR VECTOR*
%ASAXBY*%
%FSLAX23Y23*%
%MOIN*%
%OFA0B0*%
%SFA1.0B1.0*%
%ADD10C,0.080000*%
%ADD11C,0.070000*%
%ADD12C,0.100000*%
%ADD13C,0.078000*%
%ADD14C,0.075000*%
%ADD15C,0.062992*%
%ADD16C,0.082000*%
%ADD17C,0.024000*%
%ADD18C,0.020000*%
%ADD19C,0.017000*%
%ADD20C,0.015748*%
%ADD21R,0.001000X0.001000*%
%LNCOPPER1*%
G90*
G70*
G54D10*
X581Y662D03*
X681Y662D03*
X781Y662D03*
X881Y662D03*
X981Y662D03*
X1081Y662D03*
X1181Y662D03*
X1281Y662D03*
G54D11*
X1689Y1478D03*
X1589Y1478D03*
X1489Y1478D03*
X1389Y1478D03*
X1289Y1478D03*
X1189Y1478D03*
X1089Y1478D03*
X989Y1478D03*
X889Y1478D03*
X789Y1478D03*
X689Y1478D03*
X589Y1478D03*
X489Y1478D03*
X389Y1478D03*
X289Y1478D03*
X1689Y878D03*
X1589Y878D03*
X1489Y878D03*
X1389Y878D03*
X1289Y878D03*
X1189Y878D03*
X1089Y878D03*
X989Y878D03*
X889Y878D03*
X789Y878D03*
X689Y878D03*
X589Y878D03*
X489Y878D03*
X389Y878D03*
X289Y878D03*
X1785Y1277D03*
X1685Y1277D03*
X1785Y1177D03*
X1685Y1177D03*
X1785Y1077D03*
X1685Y1077D03*
G54D12*
X411Y1945D03*
G54D13*
X337Y2083D03*
X437Y2083D03*
G54D12*
X585Y1945D03*
G54D13*
X537Y2083D03*
X637Y2083D03*
G54D12*
X683Y2910D03*
X683Y3106D03*
X289Y3106D03*
X289Y2910D03*
X1590Y1942D03*
G54D13*
X1516Y2080D03*
X1616Y2080D03*
G54D12*
X1763Y1941D03*
G54D13*
X1716Y2080D03*
X1816Y2080D03*
G54D12*
X1861Y2907D03*
X1861Y3103D03*
X1468Y3103D03*
X1468Y2907D03*
X6514Y1397D03*
G54D13*
X6588Y1259D03*
X6488Y1259D03*
G54D12*
X6340Y1398D03*
G54D13*
X6388Y1259D03*
X6288Y1259D03*
G54D12*
X6242Y432D03*
X6242Y236D03*
X6636Y236D03*
X6636Y432D03*
X5561Y1397D03*
G54D13*
X5635Y1259D03*
X5535Y1259D03*
G54D12*
X5388Y1398D03*
G54D13*
X5435Y1259D03*
X5335Y1259D03*
G54D12*
X5289Y432D03*
X5289Y236D03*
X5683Y236D03*
X5683Y432D03*
X4625Y1397D03*
G54D13*
X4699Y1259D03*
X4599Y1259D03*
G54D12*
X4451Y1398D03*
G54D13*
X4499Y1259D03*
X4399Y1259D03*
G54D12*
X4353Y432D03*
X4353Y236D03*
X4747Y236D03*
X4747Y432D03*
X3649Y1397D03*
G54D13*
X3723Y1259D03*
X3623Y1259D03*
G54D12*
X3476Y1398D03*
G54D13*
X3523Y1259D03*
X3423Y1259D03*
G54D12*
X3377Y432D03*
X3377Y236D03*
X3771Y236D03*
X3771Y432D03*
X6361Y1971D03*
G54D13*
X6287Y2109D03*
X6387Y2109D03*
G54D12*
X6535Y1970D03*
G54D13*
X6487Y2109D03*
X6587Y2109D03*
G54D12*
X6633Y2936D03*
X6633Y3132D03*
X6239Y3132D03*
X6239Y2936D03*
X5409Y1954D03*
G54D13*
X5335Y2092D03*
X5435Y2092D03*
G54D12*
X5582Y1954D03*
G54D13*
X5535Y2092D03*
X5635Y2092D03*
G54D12*
X5681Y2919D03*
X5681Y3115D03*
X5287Y3115D03*
X5287Y2919D03*
X4472Y1954D03*
G54D13*
X4398Y2092D03*
X4498Y2092D03*
G54D12*
X4646Y1954D03*
G54D13*
X4598Y2092D03*
X4698Y2092D03*
G54D12*
X4744Y2919D03*
X4744Y3115D03*
X4350Y3115D03*
X4350Y2919D03*
X3497Y1946D03*
G54D13*
X3423Y2084D03*
X3523Y2084D03*
G54D12*
X3670Y1946D03*
G54D13*
X3623Y2084D03*
X3723Y2084D03*
G54D12*
X3768Y2911D03*
X3768Y3107D03*
X3375Y3107D03*
X3375Y2911D03*
X2538Y1941D03*
G54D13*
X2464Y2079D03*
X2564Y2079D03*
G54D12*
X2712Y1941D03*
G54D13*
X2664Y2079D03*
X2764Y2079D03*
G54D12*
X2810Y2906D03*
X2810Y3102D03*
X2416Y3102D03*
X2416Y2906D03*
G54D10*
X2430Y1125D03*
X2285Y1125D03*
X2140Y1125D03*
X2430Y1125D03*
X2285Y1125D03*
X2140Y1125D03*
X282Y120D03*
X282Y265D03*
X282Y410D03*
X282Y120D03*
X282Y265D03*
X282Y410D03*
G54D14*
X1110Y452D03*
X1110Y152D03*
G54D15*
X782Y445D03*
X881Y445D03*
G54D14*
X1507Y425D03*
X1507Y681D03*
X1684Y425D03*
X1684Y681D03*
G54D16*
X5995Y1749D03*
X6795Y1749D03*
G54D10*
X6202Y1541D03*
X6602Y1541D03*
G54D17*
X1325Y2068D02*
X866Y1868D01*
D02*
X866Y1868D02*
X388Y1857D01*
D02*
X388Y1857D02*
X389Y1507D01*
D02*
X1485Y2078D02*
X1325Y2068D01*
D02*
X3147Y2077D02*
X3054Y1867D01*
D02*
X3054Y1867D02*
X2201Y1861D01*
D02*
X2201Y1861D02*
X2109Y1816D01*
D02*
X2109Y1816D02*
X1031Y1812D01*
D02*
X1031Y1812D02*
X950Y1768D01*
D02*
X950Y1768D02*
X598Y1764D01*
D02*
X598Y1764D02*
X590Y1507D01*
D02*
X3392Y2083D02*
X3147Y2077D01*
D02*
X783Y1657D02*
X788Y1507D01*
D02*
X1035Y1664D02*
X783Y1657D01*
D02*
X1087Y1712D02*
X1035Y1664D01*
D02*
X2220Y1720D02*
X1087Y1712D01*
D02*
X2388Y1758D02*
X2220Y1720D01*
D02*
X3377Y1758D02*
X2388Y1758D01*
D02*
X3459Y1807D02*
X3377Y1758D01*
D02*
X4481Y1823D02*
X3459Y1807D01*
D02*
X4612Y1856D02*
X4481Y1823D01*
D02*
X5035Y1867D02*
X4612Y1856D01*
D02*
X5112Y2054D02*
X5035Y1867D01*
D02*
X5305Y2087D02*
X5112Y2054D01*
D02*
X2768Y2093D02*
X2764Y2079D01*
D02*
X2922Y1409D02*
X1195Y1398D01*
D02*
X1195Y1398D02*
X1191Y1449D01*
D02*
X3054Y1122D02*
X2922Y1409D01*
D02*
X4561Y1129D02*
X3054Y1122D01*
D02*
X4590Y1231D02*
X4561Y1129D01*
D02*
X1096Y1349D02*
X1091Y1449D01*
D02*
X2813Y1355D02*
X1096Y1349D01*
D02*
X2945Y1067D02*
X2813Y1355D01*
D02*
X5089Y1083D02*
X2945Y1067D01*
D02*
X5477Y1083D02*
X5089Y1083D01*
D02*
X5526Y1231D02*
X5477Y1083D01*
D02*
X2261Y1609D02*
X1167Y1611D01*
D02*
X6366Y1633D02*
X2261Y1609D01*
D02*
X1167Y1611D02*
X1120Y1564D01*
D02*
X1120Y1564D02*
X996Y1556D01*
D02*
X996Y1556D02*
X992Y1507D01*
D02*
X6492Y1432D02*
X6366Y1633D01*
D02*
X1400Y290D02*
X1390Y848D01*
D02*
X317Y266D02*
X1400Y290D01*
D02*
X908Y446D02*
X1082Y451D01*
D02*
X480Y550D02*
X757Y454D01*
D02*
X306Y684D02*
X480Y550D01*
D02*
X292Y849D02*
X306Y684D01*
D02*
X317Y122D02*
X1082Y151D01*
D02*
X1570Y1978D02*
X1530Y2053D01*
D02*
X1610Y2050D02*
X1597Y1982D01*
D02*
X3477Y1982D02*
X3437Y2058D01*
D02*
X3517Y2054D02*
X3504Y1987D01*
D02*
X5390Y1990D02*
X5349Y2065D01*
D02*
X5429Y2062D02*
X5417Y1994D01*
D02*
X4617Y1357D02*
X4604Y1289D01*
D02*
X4685Y1286D02*
X4644Y1361D01*
D02*
X5554Y1357D02*
X5541Y1289D01*
D02*
X5581Y1361D02*
X5621Y1286D01*
D02*
X6506Y1357D02*
X6493Y1289D01*
D02*
X6533Y1361D02*
X6574Y1286D01*
D02*
X6279Y414D02*
X6599Y255D01*
G54D18*
X551Y692D02*
X611Y692D01*
X611Y632D01*
X551Y632D01*
X551Y692D01*
D02*
G54D19*
X1716Y1451D02*
X1663Y1451D01*
X1663Y1504D01*
X1716Y1504D01*
X1716Y1451D01*
D02*
G54D20*
X806Y421D02*
X759Y421D01*
X759Y469D01*
X806Y469D01*
X806Y421D01*
D02*
G54D21*
X2390Y1165D02*
X2469Y1165D01*
X2390Y1164D02*
X2469Y1164D01*
X2390Y1163D02*
X2469Y1163D01*
X2390Y1162D02*
X2469Y1162D01*
X2390Y1161D02*
X2469Y1161D01*
X2390Y1160D02*
X2469Y1160D01*
X2390Y1159D02*
X2469Y1159D01*
X2390Y1158D02*
X2469Y1158D01*
X2390Y1157D02*
X2469Y1157D01*
X2390Y1156D02*
X2469Y1156D01*
X2390Y1155D02*
X2469Y1155D01*
X2390Y1154D02*
X2469Y1154D01*
X2390Y1153D02*
X2469Y1153D01*
X2390Y1152D02*
X2469Y1152D01*
X2390Y1151D02*
X2469Y1151D01*
X2390Y1150D02*
X2469Y1150D01*
X2390Y1149D02*
X2424Y1149D01*
X2434Y1149D02*
X2469Y1149D01*
X2390Y1148D02*
X2421Y1148D01*
X2438Y1148D02*
X2469Y1148D01*
X2390Y1147D02*
X2418Y1147D01*
X2440Y1147D02*
X2469Y1147D01*
X2390Y1146D02*
X2416Y1146D01*
X2442Y1146D02*
X2469Y1146D01*
X2390Y1145D02*
X2415Y1145D01*
X2444Y1145D02*
X2469Y1145D01*
X2390Y1144D02*
X2414Y1144D01*
X2445Y1144D02*
X2469Y1144D01*
X2390Y1143D02*
X2413Y1143D01*
X2446Y1143D02*
X2469Y1143D01*
X2390Y1142D02*
X2412Y1142D01*
X2447Y1142D02*
X2469Y1142D01*
X2390Y1141D02*
X2411Y1141D01*
X2448Y1141D02*
X2469Y1141D01*
X2390Y1140D02*
X2410Y1140D01*
X2449Y1140D02*
X2469Y1140D01*
X2390Y1139D02*
X2409Y1139D01*
X2449Y1139D02*
X2469Y1139D01*
X2390Y1138D02*
X2409Y1138D01*
X2450Y1138D02*
X2469Y1138D01*
X2390Y1137D02*
X2408Y1137D01*
X2451Y1137D02*
X2469Y1137D01*
X2390Y1136D02*
X2407Y1136D01*
X2451Y1136D02*
X2469Y1136D01*
X2390Y1135D02*
X2407Y1135D01*
X2452Y1135D02*
X2469Y1135D01*
X2390Y1134D02*
X2407Y1134D01*
X2452Y1134D02*
X2469Y1134D01*
X2390Y1133D02*
X2406Y1133D01*
X2452Y1133D02*
X2469Y1133D01*
X2390Y1132D02*
X2406Y1132D01*
X2453Y1132D02*
X2469Y1132D01*
X2390Y1131D02*
X2406Y1131D01*
X2453Y1131D02*
X2469Y1131D01*
X2390Y1130D02*
X2406Y1130D01*
X2453Y1130D02*
X2469Y1130D01*
X2390Y1129D02*
X2405Y1129D01*
X2453Y1129D02*
X2469Y1129D01*
X2390Y1128D02*
X2405Y1128D01*
X2453Y1128D02*
X2469Y1128D01*
X2390Y1127D02*
X2405Y1127D01*
X2453Y1127D02*
X2469Y1127D01*
X2390Y1126D02*
X2405Y1126D01*
X2453Y1126D02*
X2469Y1126D01*
X2390Y1125D02*
X2405Y1125D01*
X2453Y1125D02*
X2469Y1125D01*
X2390Y1124D02*
X2405Y1124D01*
X2453Y1124D02*
X2469Y1124D01*
X2390Y1123D02*
X2405Y1123D01*
X2453Y1123D02*
X2469Y1123D01*
X2390Y1122D02*
X2405Y1122D01*
X2453Y1122D02*
X2469Y1122D01*
X2390Y1121D02*
X2406Y1121D01*
X2453Y1121D02*
X2469Y1121D01*
X2390Y1120D02*
X2406Y1120D01*
X2453Y1120D02*
X2469Y1120D01*
X2390Y1119D02*
X2406Y1119D01*
X2452Y1119D02*
X2469Y1119D01*
X2390Y1118D02*
X2407Y1118D01*
X2452Y1118D02*
X2469Y1118D01*
X2390Y1117D02*
X2407Y1117D01*
X2452Y1117D02*
X2469Y1117D01*
X2390Y1116D02*
X2407Y1116D01*
X2451Y1116D02*
X2469Y1116D01*
X2390Y1115D02*
X2408Y1115D01*
X2451Y1115D02*
X2469Y1115D01*
X2390Y1114D02*
X2408Y1114D01*
X2450Y1114D02*
X2469Y1114D01*
X2390Y1113D02*
X2409Y1113D01*
X2450Y1113D02*
X2469Y1113D01*
X2390Y1112D02*
X2410Y1112D01*
X2449Y1112D02*
X2469Y1112D01*
X2390Y1111D02*
X2410Y1111D01*
X2448Y1111D02*
X2469Y1111D01*
X2390Y1110D02*
X2411Y1110D01*
X2447Y1110D02*
X2469Y1110D01*
X2390Y1109D02*
X2412Y1109D01*
X2446Y1109D02*
X2469Y1109D01*
X2390Y1108D02*
X2413Y1108D01*
X2445Y1108D02*
X2469Y1108D01*
X2390Y1107D02*
X2414Y1107D01*
X2444Y1107D02*
X2469Y1107D01*
X2390Y1106D02*
X2416Y1106D01*
X2443Y1106D02*
X2469Y1106D01*
X2390Y1105D02*
X2418Y1105D01*
X2441Y1105D02*
X2469Y1105D01*
X2390Y1104D02*
X2420Y1104D01*
X2439Y1104D02*
X2469Y1104D01*
X2390Y1103D02*
X2423Y1103D01*
X2436Y1103D02*
X2469Y1103D01*
X2390Y1102D02*
X2469Y1102D01*
X2390Y1101D02*
X2469Y1101D01*
X2390Y1100D02*
X2469Y1100D01*
X2390Y1099D02*
X2469Y1099D01*
X2390Y1098D02*
X2469Y1098D01*
X2390Y1097D02*
X2469Y1097D01*
X2390Y1096D02*
X2469Y1096D01*
X2390Y1095D02*
X2469Y1095D01*
X2390Y1094D02*
X2469Y1094D01*
X2390Y1093D02*
X2469Y1093D01*
X2390Y1092D02*
X2469Y1092D01*
X2390Y1091D02*
X2469Y1091D01*
X2390Y1090D02*
X2469Y1090D01*
X2390Y1089D02*
X2469Y1089D01*
X2390Y1088D02*
X2469Y1088D01*
X2390Y1087D02*
X2469Y1087D01*
X2390Y1086D02*
X2468Y1086D01*
X242Y160D02*
X321Y160D01*
X242Y159D02*
X321Y159D01*
X242Y158D02*
X321Y158D01*
X242Y157D02*
X321Y157D01*
X242Y156D02*
X321Y156D01*
X242Y155D02*
X321Y155D01*
X242Y154D02*
X321Y154D01*
X242Y153D02*
X321Y153D01*
X242Y152D02*
X321Y152D01*
X242Y151D02*
X321Y151D01*
X242Y150D02*
X321Y150D01*
X242Y149D02*
X321Y149D01*
X242Y148D02*
X321Y148D01*
X242Y147D02*
X321Y147D01*
X242Y146D02*
X321Y146D01*
X242Y145D02*
X321Y145D01*
X242Y144D02*
X277Y144D01*
X287Y144D02*
X321Y144D01*
X242Y143D02*
X273Y143D01*
X290Y143D02*
X321Y143D01*
X242Y142D02*
X271Y142D01*
X293Y142D02*
X321Y142D01*
X242Y141D02*
X269Y141D01*
X294Y141D02*
X321Y141D01*
X242Y140D02*
X267Y140D01*
X296Y140D02*
X321Y140D01*
X242Y139D02*
X266Y139D01*
X297Y139D02*
X321Y139D01*
X242Y138D02*
X265Y138D01*
X298Y138D02*
X321Y138D01*
X242Y137D02*
X264Y137D01*
X299Y137D02*
X321Y137D01*
X242Y136D02*
X263Y136D01*
X300Y136D02*
X321Y136D01*
X242Y135D02*
X262Y135D01*
X301Y135D02*
X321Y135D01*
X242Y134D02*
X262Y134D01*
X302Y134D02*
X321Y134D01*
X242Y133D02*
X261Y133D01*
X302Y133D02*
X321Y133D01*
X242Y132D02*
X260Y132D01*
X303Y132D02*
X321Y132D01*
X242Y131D02*
X260Y131D01*
X303Y131D02*
X321Y131D01*
X242Y130D02*
X259Y130D01*
X304Y130D02*
X321Y130D01*
X242Y129D02*
X259Y129D01*
X304Y129D02*
X321Y129D01*
X242Y128D02*
X259Y128D01*
X305Y128D02*
X321Y128D01*
X242Y127D02*
X258Y127D01*
X305Y127D02*
X321Y127D01*
X242Y126D02*
X258Y126D01*
X305Y126D02*
X321Y126D01*
X242Y125D02*
X258Y125D01*
X305Y125D02*
X321Y125D01*
X242Y124D02*
X258Y124D01*
X306Y124D02*
X321Y124D01*
X242Y123D02*
X258Y123D01*
X306Y123D02*
X321Y123D01*
X242Y122D02*
X258Y122D01*
X306Y122D02*
X321Y122D01*
X242Y121D02*
X257Y121D01*
X306Y121D02*
X321Y121D01*
X242Y120D02*
X258Y120D01*
X306Y120D02*
X321Y120D01*
X242Y119D02*
X258Y119D01*
X306Y119D02*
X321Y119D01*
X242Y118D02*
X258Y118D01*
X306Y118D02*
X321Y118D01*
X242Y117D02*
X258Y117D01*
X305Y117D02*
X321Y117D01*
X242Y116D02*
X258Y116D01*
X305Y116D02*
X321Y116D01*
X242Y115D02*
X258Y115D01*
X305Y115D02*
X321Y115D01*
X242Y114D02*
X259Y114D01*
X305Y114D02*
X321Y114D01*
X242Y113D02*
X259Y113D01*
X304Y113D02*
X321Y113D01*
X242Y112D02*
X259Y112D01*
X304Y112D02*
X321Y112D01*
X242Y111D02*
X260Y111D01*
X304Y111D02*
X321Y111D01*
X242Y110D02*
X260Y110D01*
X303Y110D02*
X321Y110D01*
X242Y109D02*
X261Y109D01*
X303Y109D02*
X321Y109D01*
X242Y108D02*
X261Y108D01*
X302Y108D02*
X321Y108D01*
X242Y107D02*
X262Y107D01*
X301Y107D02*
X321Y107D01*
X242Y106D02*
X263Y106D01*
X300Y106D02*
X321Y106D01*
X242Y105D02*
X264Y105D01*
X300Y105D02*
X321Y105D01*
X242Y104D02*
X265Y104D01*
X299Y104D02*
X321Y104D01*
X242Y103D02*
X266Y103D01*
X298Y103D02*
X321Y103D01*
X242Y102D02*
X267Y102D01*
X296Y102D02*
X321Y102D01*
X242Y101D02*
X268Y101D01*
X295Y101D02*
X321Y101D01*
X242Y100D02*
X270Y100D01*
X293Y100D02*
X321Y100D01*
X242Y99D02*
X272Y99D01*
X291Y99D02*
X321Y99D01*
X242Y98D02*
X275Y98D01*
X288Y98D02*
X321Y98D01*
X242Y97D02*
X321Y97D01*
X242Y96D02*
X321Y96D01*
X242Y95D02*
X321Y95D01*
X242Y94D02*
X321Y94D01*
X242Y93D02*
X321Y93D01*
X242Y92D02*
X321Y92D01*
X242Y91D02*
X321Y91D01*
X242Y90D02*
X321Y90D01*
X242Y89D02*
X321Y89D01*
X242Y88D02*
X321Y88D01*
X242Y87D02*
X321Y87D01*
X242Y86D02*
X321Y86D01*
X242Y85D02*
X321Y85D01*
X242Y84D02*
X321Y84D01*
X242Y83D02*
X321Y83D01*
X242Y82D02*
X321Y82D01*
X242Y81D02*
X321Y81D01*
D02*
G04 End of Copper1*
M02*