G04 MADE WITH FRITZING*
G04 WWW.FRITZING.ORG*
G04 DOUBLE SIDED*
G04 HOLES PLATED*
G04 CONTOUR ON CENTER OF CONTOUR VECTOR*
%ASAXBY*%
%FSLAX23Y23*%
%MOIN*%
%OFA0B0*%
%SFA1.0B1.0*%
%ADD10C,0.090000*%
%ADD11C,0.080000*%
%ADD12C,0.110000*%
%ADD13C,0.088000*%
%ADD14C,0.085000*%
%ADD15C,0.072992*%
%ADD16C,0.147795*%
%ADD17C,0.092000*%
%ADD18C,0.030000*%
%ADD19C,0.027000*%
%ADD20C,0.025748*%
%ADD21R,0.001000X0.001000*%
%LNMASK1*%
G90*
G70*
G54D10*
X581Y662D03*
X681Y662D03*
X781Y662D03*
X881Y662D03*
X981Y662D03*
X1081Y662D03*
X1181Y662D03*
X1281Y662D03*
G54D11*
X1689Y1478D03*
X1589Y1478D03*
X1489Y1478D03*
X1389Y1478D03*
X1289Y1478D03*
X1189Y1478D03*
X1089Y1478D03*
X989Y1478D03*
X889Y1478D03*
X789Y1478D03*
X689Y1478D03*
X589Y1478D03*
X489Y1478D03*
X389Y1478D03*
X289Y1478D03*
X1689Y878D03*
X1589Y878D03*
X1489Y878D03*
X1389Y878D03*
X1289Y878D03*
X1189Y878D03*
X1089Y878D03*
X989Y878D03*
X889Y878D03*
X789Y878D03*
X689Y878D03*
X589Y878D03*
X489Y878D03*
X389Y878D03*
X289Y878D03*
X1785Y1277D03*
X1685Y1277D03*
X1785Y1177D03*
X1685Y1177D03*
X1785Y1077D03*
X1685Y1077D03*
G54D12*
X411Y1945D03*
G54D13*
X337Y2083D03*
X437Y2083D03*
G54D12*
X585Y1945D03*
G54D13*
X537Y2083D03*
X637Y2083D03*
G54D12*
X683Y2910D03*
X683Y3106D03*
X289Y3106D03*
X289Y2910D03*
X1590Y1942D03*
G54D13*
X1516Y2080D03*
X1616Y2080D03*
G54D12*
X1763Y1941D03*
G54D13*
X1716Y2080D03*
X1816Y2080D03*
G54D12*
X1861Y2907D03*
X1861Y3103D03*
X1468Y3103D03*
X1468Y2907D03*
X6514Y1397D03*
G54D13*
X6588Y1259D03*
X6488Y1259D03*
G54D12*
X6340Y1398D03*
G54D13*
X6388Y1259D03*
X6288Y1259D03*
G54D12*
X6242Y432D03*
X6242Y236D03*
X6636Y236D03*
X6636Y432D03*
X5561Y1397D03*
G54D13*
X5635Y1259D03*
X5535Y1259D03*
G54D12*
X5388Y1398D03*
G54D13*
X5435Y1259D03*
X5335Y1259D03*
G54D12*
X5289Y432D03*
X5289Y236D03*
X5683Y236D03*
X5683Y432D03*
X4625Y1397D03*
G54D13*
X4699Y1259D03*
X4599Y1259D03*
G54D12*
X4451Y1398D03*
G54D13*
X4499Y1259D03*
X4399Y1259D03*
G54D12*
X4353Y432D03*
X4353Y236D03*
X4747Y236D03*
X4747Y432D03*
X3649Y1397D03*
G54D13*
X3723Y1259D03*
X3623Y1259D03*
G54D12*
X3476Y1398D03*
G54D13*
X3523Y1259D03*
X3423Y1259D03*
G54D12*
X3377Y432D03*
X3377Y236D03*
X3771Y236D03*
X3771Y432D03*
X6361Y1971D03*
G54D13*
X6287Y2109D03*
X6387Y2109D03*
G54D12*
X6535Y1970D03*
G54D13*
X6487Y2109D03*
X6587Y2109D03*
G54D12*
X6633Y2936D03*
X6633Y3132D03*
X6239Y3132D03*
X6239Y2936D03*
X5409Y1954D03*
G54D13*
X5335Y2092D03*
X5435Y2092D03*
G54D12*
X5582Y1954D03*
G54D13*
X5535Y2092D03*
X5635Y2092D03*
G54D12*
X5681Y2919D03*
X5681Y3115D03*
X5287Y3115D03*
X5287Y2919D03*
X4472Y1954D03*
G54D13*
X4398Y2092D03*
X4498Y2092D03*
G54D12*
X4646Y1954D03*
G54D13*
X4598Y2092D03*
X4698Y2092D03*
G54D12*
X4744Y2919D03*
X4744Y3115D03*
X4350Y3115D03*
X4350Y2919D03*
X3497Y1946D03*
G54D13*
X3423Y2084D03*
X3523Y2084D03*
G54D12*
X3670Y1946D03*
G54D13*
X3623Y2084D03*
X3723Y2084D03*
G54D12*
X3768Y2911D03*
X3768Y3107D03*
X3375Y3107D03*
X3375Y2911D03*
X2538Y1941D03*
G54D13*
X2464Y2079D03*
X2564Y2079D03*
G54D12*
X2712Y1941D03*
G54D13*
X2664Y2079D03*
X2764Y2079D03*
G54D12*
X2810Y2906D03*
X2810Y3102D03*
X2416Y3102D03*
X2416Y2906D03*
G54D10*
X2430Y1125D03*
X2285Y1125D03*
X2140Y1125D03*
X2430Y1125D03*
X2285Y1125D03*
X2140Y1125D03*
X282Y120D03*
X282Y265D03*
X282Y410D03*
X282Y120D03*
X282Y265D03*
X282Y410D03*
G54D14*
X1110Y452D03*
X1110Y152D03*
G54D15*
X782Y445D03*
X881Y445D03*
G54D14*
X1507Y425D03*
X1507Y681D03*
X1684Y425D03*
X1684Y681D03*
G54D16*
X1081Y2527D03*
X5959Y2527D03*
X5959Y756D03*
G54D17*
X5995Y1775D03*
X6795Y1775D03*
G54D10*
X6202Y1554D03*
X6602Y1554D03*
G54D18*
G36*
X551Y692D02*
X611Y692D01*
X611Y632D01*
X551Y632D01*
X551Y692D01*
G37*
D02*
G54D19*
G36*
X1716Y1451D02*
X1663Y1451D01*
X1663Y1504D01*
X1716Y1504D01*
X1716Y1451D01*
G37*
D02*
G54D20*
G36*
X806Y421D02*
X759Y421D01*
X759Y469D01*
X806Y469D01*
X806Y421D01*
G37*
D02*
G54D21*
X2385Y1170D02*
X2474Y1170D01*
X2385Y1169D02*
X2474Y1169D01*
X2385Y1168D02*
X2474Y1168D01*
X2385Y1167D02*
X2474Y1167D01*
X2385Y1166D02*
X2474Y1166D01*
X2385Y1165D02*
X2474Y1165D01*
X2385Y1164D02*
X2474Y1164D01*
X2385Y1163D02*
X2474Y1163D01*
X2385Y1162D02*
X2474Y1162D01*
X2385Y1161D02*
X2474Y1161D01*
X2385Y1160D02*
X2474Y1160D01*
X2385Y1159D02*
X2474Y1159D01*
X2385Y1158D02*
X2474Y1158D01*
X2385Y1157D02*
X2474Y1157D01*
X2385Y1156D02*
X2474Y1156D01*
X2385Y1155D02*
X2474Y1155D01*
X2385Y1154D02*
X2474Y1154D01*
X2385Y1153D02*
X2474Y1153D01*
X2385Y1152D02*
X2474Y1152D01*
X2385Y1151D02*
X2474Y1151D01*
X2385Y1150D02*
X2474Y1150D01*
X2385Y1149D02*
X2474Y1149D01*
X2385Y1148D02*
X2474Y1148D01*
X2385Y1147D02*
X2474Y1147D01*
X2385Y1146D02*
X2474Y1146D01*
X2385Y1145D02*
X2474Y1145D01*
X2385Y1144D02*
X2424Y1144D01*
X2434Y1144D02*
X2474Y1144D01*
X2385Y1143D02*
X2421Y1143D01*
X2437Y1143D02*
X2474Y1143D01*
X2385Y1142D02*
X2419Y1142D01*
X2439Y1142D02*
X2474Y1142D01*
X2385Y1141D02*
X2418Y1141D01*
X2441Y1141D02*
X2474Y1141D01*
X2385Y1140D02*
X2417Y1140D01*
X2442Y1140D02*
X2474Y1140D01*
X2385Y1139D02*
X2415Y1139D01*
X2443Y1139D02*
X2474Y1139D01*
X2385Y1138D02*
X2415Y1138D01*
X2444Y1138D02*
X2474Y1138D01*
X2385Y1137D02*
X2414Y1137D01*
X2445Y1137D02*
X2474Y1137D01*
X2385Y1136D02*
X2413Y1136D01*
X2446Y1136D02*
X2474Y1136D01*
X2385Y1135D02*
X2412Y1135D01*
X2446Y1135D02*
X2474Y1135D01*
X2385Y1134D02*
X2412Y1134D01*
X2447Y1134D02*
X2474Y1134D01*
X2385Y1133D02*
X2411Y1133D01*
X2447Y1133D02*
X2474Y1133D01*
X2385Y1132D02*
X2411Y1132D01*
X2447Y1132D02*
X2474Y1132D01*
X2385Y1131D02*
X2411Y1131D01*
X2448Y1131D02*
X2474Y1131D01*
X2385Y1130D02*
X2411Y1130D01*
X2448Y1130D02*
X2474Y1130D01*
X2385Y1129D02*
X2410Y1129D01*
X2448Y1129D02*
X2474Y1129D01*
X2385Y1128D02*
X2410Y1128D01*
X2448Y1128D02*
X2474Y1128D01*
X2385Y1127D02*
X2410Y1127D01*
X2448Y1127D02*
X2474Y1127D01*
X2385Y1126D02*
X2410Y1126D01*
X2448Y1126D02*
X2474Y1126D01*
X2385Y1125D02*
X2410Y1125D01*
X2448Y1125D02*
X2474Y1125D01*
X2385Y1124D02*
X2410Y1124D01*
X2448Y1124D02*
X2474Y1124D01*
X2385Y1123D02*
X2410Y1123D01*
X2448Y1123D02*
X2474Y1123D01*
X2385Y1122D02*
X2411Y1122D01*
X2448Y1122D02*
X2474Y1122D01*
X2385Y1121D02*
X2411Y1121D01*
X2448Y1121D02*
X2474Y1121D01*
X2385Y1120D02*
X2411Y1120D01*
X2448Y1120D02*
X2474Y1120D01*
X2385Y1119D02*
X2411Y1119D01*
X2447Y1119D02*
X2474Y1119D01*
X2385Y1118D02*
X2412Y1118D01*
X2447Y1118D02*
X2474Y1118D01*
X2385Y1117D02*
X2412Y1117D01*
X2446Y1117D02*
X2474Y1117D01*
X2385Y1116D02*
X2413Y1116D01*
X2446Y1116D02*
X2474Y1116D01*
X2385Y1115D02*
X2413Y1115D01*
X2445Y1115D02*
X2474Y1115D01*
X2385Y1114D02*
X2414Y1114D01*
X2444Y1114D02*
X2474Y1114D01*
X2385Y1113D02*
X2415Y1113D01*
X2443Y1113D02*
X2474Y1113D01*
X2385Y1112D02*
X2416Y1112D01*
X2442Y1112D02*
X2474Y1112D01*
X2385Y1111D02*
X2417Y1111D01*
X2441Y1111D02*
X2474Y1111D01*
X2385Y1110D02*
X2419Y1110D01*
X2440Y1110D02*
X2474Y1110D01*
X2385Y1109D02*
X2421Y1109D01*
X2438Y1109D02*
X2474Y1109D01*
X2385Y1108D02*
X2423Y1108D01*
X2435Y1108D02*
X2474Y1108D01*
X2385Y1107D02*
X2474Y1107D01*
X2385Y1106D02*
X2474Y1106D01*
X2385Y1105D02*
X2474Y1105D01*
X2385Y1104D02*
X2474Y1104D01*
X2385Y1103D02*
X2474Y1103D01*
X2385Y1102D02*
X2474Y1102D01*
X2385Y1101D02*
X2474Y1101D01*
X2385Y1100D02*
X2474Y1100D01*
X2385Y1099D02*
X2474Y1099D01*
X2385Y1098D02*
X2474Y1098D01*
X2385Y1097D02*
X2474Y1097D01*
X2385Y1096D02*
X2474Y1096D01*
X2385Y1095D02*
X2474Y1095D01*
X2385Y1094D02*
X2474Y1094D01*
X2385Y1093D02*
X2474Y1093D01*
X2385Y1092D02*
X2474Y1092D01*
X2385Y1091D02*
X2474Y1091D01*
X2385Y1090D02*
X2474Y1090D01*
X2385Y1089D02*
X2474Y1089D01*
X2385Y1088D02*
X2474Y1088D01*
X2385Y1087D02*
X2474Y1087D01*
X2385Y1086D02*
X2474Y1086D01*
X2385Y1085D02*
X2474Y1085D01*
X2385Y1084D02*
X2474Y1084D01*
X2385Y1083D02*
X2474Y1083D01*
X2385Y1082D02*
X2474Y1082D01*
X2385Y1081D02*
X2473Y1081D01*
X237Y165D02*
X326Y165D01*
X237Y164D02*
X326Y164D01*
X237Y163D02*
X326Y163D01*
X237Y162D02*
X326Y162D01*
X237Y161D02*
X326Y161D01*
X237Y160D02*
X326Y160D01*
X237Y159D02*
X326Y159D01*
X237Y158D02*
X326Y158D01*
X237Y157D02*
X326Y157D01*
X237Y156D02*
X326Y156D01*
X237Y155D02*
X326Y155D01*
X237Y154D02*
X326Y154D01*
X237Y153D02*
X326Y153D01*
X237Y152D02*
X326Y152D01*
X237Y151D02*
X326Y151D01*
X237Y150D02*
X326Y150D01*
X237Y149D02*
X326Y149D01*
X237Y148D02*
X326Y148D01*
X237Y147D02*
X326Y147D01*
X237Y146D02*
X326Y146D01*
X237Y145D02*
X326Y145D01*
X237Y144D02*
X326Y144D01*
X237Y143D02*
X326Y143D01*
X237Y142D02*
X326Y142D01*
X237Y141D02*
X326Y141D01*
X237Y140D02*
X326Y140D01*
X237Y139D02*
X277Y139D01*
X287Y139D02*
X326Y139D01*
X237Y138D02*
X273Y138D01*
X290Y138D02*
X326Y138D01*
X237Y137D02*
X272Y137D01*
X292Y137D02*
X326Y137D01*
X237Y136D02*
X270Y136D01*
X293Y136D02*
X326Y136D01*
X237Y135D02*
X269Y135D01*
X294Y135D02*
X326Y135D01*
X237Y134D02*
X268Y134D01*
X295Y134D02*
X326Y134D01*
X237Y133D02*
X267Y133D01*
X296Y133D02*
X326Y133D01*
X237Y132D02*
X266Y132D01*
X297Y132D02*
X326Y132D01*
X237Y131D02*
X265Y131D01*
X298Y131D02*
X326Y131D01*
X237Y130D02*
X265Y130D01*
X298Y130D02*
X326Y130D01*
X237Y129D02*
X264Y129D01*
X299Y129D02*
X326Y129D01*
X237Y128D02*
X264Y128D01*
X299Y128D02*
X326Y128D01*
X237Y127D02*
X263Y127D01*
X300Y127D02*
X326Y127D01*
X237Y126D02*
X263Y126D01*
X300Y126D02*
X326Y126D01*
X237Y125D02*
X263Y125D01*
X300Y125D02*
X326Y125D01*
X237Y124D02*
X263Y124D01*
X301Y124D02*
X326Y124D01*
X237Y123D02*
X262Y123D01*
X301Y123D02*
X326Y123D01*
X237Y122D02*
X262Y122D01*
X301Y122D02*
X326Y122D01*
X237Y121D02*
X262Y121D01*
X301Y121D02*
X326Y121D01*
X237Y120D02*
X262Y120D01*
X301Y120D02*
X326Y120D01*
X237Y119D02*
X262Y119D01*
X301Y119D02*
X326Y119D01*
X237Y118D02*
X263Y118D01*
X301Y118D02*
X326Y118D01*
X237Y117D02*
X263Y117D01*
X300Y117D02*
X326Y117D01*
X237Y116D02*
X263Y116D01*
X300Y116D02*
X326Y116D01*
X237Y115D02*
X263Y115D01*
X300Y115D02*
X326Y115D01*
X237Y114D02*
X264Y114D01*
X299Y114D02*
X326Y114D01*
X237Y113D02*
X264Y113D01*
X299Y113D02*
X326Y113D01*
X237Y112D02*
X265Y112D01*
X299Y112D02*
X326Y112D01*
X237Y111D02*
X265Y111D01*
X298Y111D02*
X326Y111D01*
X237Y110D02*
X266Y110D01*
X297Y110D02*
X326Y110D01*
X237Y109D02*
X267Y109D01*
X297Y109D02*
X326Y109D01*
X237Y108D02*
X268Y108D01*
X296Y108D02*
X326Y108D01*
X237Y107D02*
X269Y107D01*
X295Y107D02*
X326Y107D01*
X237Y106D02*
X270Y106D01*
X294Y106D02*
X326Y106D01*
X237Y105D02*
X271Y105D01*
X292Y105D02*
X326Y105D01*
X237Y104D02*
X273Y104D01*
X290Y104D02*
X326Y104D01*
X237Y103D02*
X276Y103D01*
X288Y103D02*
X326Y103D01*
X237Y102D02*
X326Y102D01*
X237Y101D02*
X326Y101D01*
X237Y100D02*
X326Y100D01*
X237Y99D02*
X326Y99D01*
X237Y98D02*
X326Y98D01*
X237Y97D02*
X326Y97D01*
X237Y96D02*
X326Y96D01*
X237Y95D02*
X326Y95D01*
X237Y94D02*
X326Y94D01*
X237Y93D02*
X326Y93D01*
X237Y92D02*
X326Y92D01*
X237Y91D02*
X326Y91D01*
X237Y90D02*
X326Y90D01*
X237Y89D02*
X326Y89D01*
X237Y88D02*
X326Y88D01*
X237Y87D02*
X326Y87D01*
X237Y86D02*
X326Y86D01*
X237Y85D02*
X326Y85D01*
X237Y84D02*
X326Y84D01*
X237Y83D02*
X326Y83D01*
X237Y82D02*
X326Y82D01*
X237Y81D02*
X326Y81D01*
X237Y80D02*
X326Y80D01*
X237Y79D02*
X326Y79D01*
X237Y78D02*
X326Y78D01*
X237Y77D02*
X326Y77D01*
X237Y76D02*
X326Y76D01*
D02*
G04 End of Mask1*
M02*