; NON-PLATED HOLES START AT T1
; THROUGH (PLATED) HOLES START AT T100
M48
INCH
T1C0.137795
T100C0.047244
T101C0.040000
T102C0.036000
T103C0.035000
T104C0.060000
T105C0.042000
T106C0.031497
T107C0.038000
%
T1
X022474Y008200
X059444Y008200
X059444Y025908
X010669Y025908
T100
X002677Y003287
X002677Y001839
X002677Y004735
X024155Y011889
X021259Y011889
X022707Y011889
T101
X011665Y007253
X065871Y016045
X010665Y007253
X061871Y016045
X006665Y007253
X009665Y007253
X007665Y007253
X005665Y007253
X008665Y007253
X012665Y007253
T102
X009747Y015411
X004747Y015411
X011747Y015411
X016703Y013409
X017703Y012408
X003747Y009411
X006747Y009411
X010747Y015411
X007747Y015411
X015747Y009411
X007747Y009411
X003747Y015411
X010747Y009411
X002747Y009411
X016703Y011407
X004747Y009411
X016703Y012408
X008747Y009411
X014747Y015411
X008747Y015411
X009747Y009411
X012747Y015411
X014747Y009411
X005747Y009411
X015747Y015411
X006747Y015411
X013747Y015411
X011747Y009411
X002747Y015411
X013747Y009411
X017703Y013409
X017703Y011407
X005747Y015411
X016747Y015411
X016747Y009411
X012747Y009411
T103
X014924Y007447
X014924Y004888
X010957Y005152
X016696Y007447
X010957Y002152
X016696Y004888
T104
X033603Y031707
X014533Y029703
X053946Y020174
X052750Y002998
X018470Y031664
X015753Y020053
X063470Y020342
X062275Y002998
X017486Y020049
X056687Y004958
X065202Y020338
X062250Y029992
X062250Y031952
X056687Y002998
X037565Y002998
X005703Y020085
X053735Y014612
X006687Y031699
X043360Y029825
X047297Y031785
X043385Y004958
X025240Y020046
X052725Y029825
X036555Y020093
X024019Y031657
X027957Y029697
X044369Y014612
X002750Y031699
X027957Y031658
X052725Y031785
X002750Y029739
X056662Y031785
X046102Y014609
X055467Y014609
X046313Y020171
X024019Y029697
X033628Y004958
X047322Y004958
X052750Y004958
X037565Y004958
X036344Y014609
X056662Y029825
X034823Y020096
X066187Y029992
X003970Y020088
X043385Y002998
X014533Y031663
X033628Y002998
X064991Y014609
X047322Y002998
X033603Y029747
X006687Y029739
X066212Y004958
X066187Y031953
X037540Y029747
X066212Y002998
X037540Y031708
X047297Y029825
X026972Y020043
X055678Y020171
X018470Y029703
X034612Y014612
X044580Y020174
X062275Y004958
X043360Y031785
X063259Y014612
T105
X059809Y018122
X067809Y018122
T106
X008665Y005086
X007680Y005086
T107
X015011Y021432
X017011Y021432
X053203Y021553
X036087Y013230
X035081Y021475
X004228Y021467
X064728Y021721
X016011Y021432
X063728Y021721
X035087Y013230
X043844Y013230
X046844Y013230
X044838Y021553
X027498Y021425
X056203Y021553
X055209Y013230
X025498Y021425
X036081Y021475
X034087Y013230
X045844Y013230
X063734Y013230
X037087Y013230
X056209Y013230
X005228Y021467
X044844Y013230
X053209Y013230
X062734Y013230
X026498Y021425
X046838Y021553
X054209Y013230
X045838Y021553
X065734Y013230
X024497Y021425
X003228Y021467
X018011Y021432
X037081Y021475
X062728Y021721
X055203Y021553
X064734Y013230
X006228Y021467
X034081Y021475
X043838Y021553
X065728Y021721
X054203Y021553
T00
M30
